<svg width="200" height="333" viewBox="0 0 200 333" fill="none" xmlns="http://www.w3.org/2000/svg">
<path d="M28.8255 165.887C28.3689 162.021 32.081 158.839 35.8799 159.685C49.7268 162.771 81.616 168.292 132.527 168.292C183.437 168.292 215.326 162.771 229.173 159.685C232.972 158.839 236.684 162.021 236.228 165.887L221.855 287.561C221.634 289.432 220.455 291.031 218.669 291.634C210.707 294.323 185.175 301.21 132.527 301.21C79.8782 301.21 54.3464 294.323 46.3838 291.634C44.5987 291.031 43.4193 289.432 43.1983 287.561L28.8255 165.887Z" stroke="white" stroke-width="6"/>
<path d="M91.3565 193.984C79.8635 192.471 71.3609 190.834 65.7848 189.591C61.9858 188.745 58.2752 191.928 58.7317 195.793L65.6102 254.024" stroke="white" stroke-width="6" stroke-linecap="round"/>
<path d="M130.945 54.5013C131.063 50.82 134.668 48.3522 138.014 49.8932C149.048 54.9757 171.889 67.3794 196.373 91.8632C225.599 121.089 229.82 145.472 230.322 154.247C230.444 156.377 229.034 158.154 226.975 158.711C216.952 161.422 184.636 168.864 131.93 168.864C80.1473 168.864 47.9359 160.707 37.2784 157.502C34.9401 156.799 33.535 154.542 34.0372 152.152C35.2575 146.346 38.4745 135.524 46.3906 127.607C67.7876 106.21 106.114 131.149 122.559 104.812C128.892 94.6695 130.525 67.7055 130.945 54.5013Z" stroke="white" stroke-width="6"/>
</svg>
