<svg width="127" height="79" viewBox="0 0 127 79" fill="none" xmlns="http://www.w3.org/2000/svg">
<path d="M23.7141 51.8248C23.4576 49.6529 25.5482 47.8484 27.6914 48.2842C33.5458 49.4747 45.1318 51.2204 62.7326 51.2204C80.3333 51.2204 91.9194 49.4747 97.7738 48.2842C99.917 47.8484 102.008 49.6529 101.751 51.8248L96.5627 95.7475C96.4385 96.7989 95.7736 97.696 94.7638 98.0143C91.2421 99.1242 81.5883 101.461 62.7326 101.461C43.8769 101.461 34.2231 99.1242 30.7014 98.0143C29.6916 97.696 29.0267 96.7989 28.9025 95.7475L23.7141 51.8248Z" stroke="white" stroke-width="3.37147"/>
<path d="M47.1736 60.9344C43.7514 60.4839 41.0306 60.0041 38.9995 59.5912C36.8563 59.1554 34.7642 60.9595 35.0208 63.1314L37.442 83.6282" stroke="white" stroke-width="3.37147" stroke-linecap="round"/>
<path d="M62.0815 9.58946C62.1695 7.52169 64.194 6.14573 66.0505 7.06049C70.5509 9.27797 78.4507 13.9175 86.8635 22.3303C97.2575 32.7243 99.2844 41.4978 99.6458 45.2615C99.7603 46.4546 98.9656 47.4636 97.8049 47.7626C93.4116 48.8943 81.4391 51.4353 62.5052 51.4352C43.9992 51.4352 32.1062 48.6791 27.4598 47.3547C26.1403 46.9787 25.3455 45.7051 25.6736 44.3729C26.2377 42.0819 27.4928 38.5209 30.1727 35.841C38.2604 27.7532 52.747 37.1795 58.963 27.2248C61.153 23.7175 61.8559 14.8891 62.0815 9.58946Z" stroke="white" stroke-width="3.37147"/>
</svg>
