<svg width="991" height="989" viewBox="0 0 991 989" fill="none" xmlns="http://www.w3.org/2000/svg">
<path d="M356.917 986.248C369.574 985.064 382.23 983.881 394.887 982.697C400.03 981.544 405.134 980.215 410.295 979.262C450.885 971.813 491.43 964.122 532.087 957.16C555.079 953.24 578.108 949.719 599.923 941.134C665.948 915.101 729.842 884.762 789.814 846.54C812.07 832.355 830.996 814.716 847.694 794.595C889.442 744.337 915.633 686.321 932.44 623.69C946.535 571.176 951.722 517.701 949.325 463.501C946.317 395.573 936.934 328.823 911.498 265.077C895.816 225.747 875.517 189.113 848.978 156.044C817.538 116.888 782.016 82.0587 740.197 53.8028C702.235 28.1675 661.218 10.6409 615.465 5.34736C575.814 0.760995 536.264 2.53112 497.278 10.5697C472.446 15.6932 447.843 22.2973 423.551 29.5896C403.558 35.5833 383.398 41.9512 364.673 50.9422C335.578 64.9374 310.325 85.2306 285.288 105.436C256.812 128.452 229.306 152.722 200.42 175.193C143.439 219.478 91.4087 268.478 48.6027 326.86C17.2003 369.695 -8.82374 415.098 -21.8177 467.151C-29.166 496.552 -35.6864 526.167 -35.3382 556.529C-34.9096 595.671 -27.4728 633.933 -16.3851 671.406C-3.49015 715.008 16.3109 755.679 38.2573 795.297C53.2106 822.276 68.7799 848.884 89.4947 872.209C106.546 891.394 127.159 906.189 146.913 922.117C161.837 934.148 178 943.822 195.121 952.465C236.361 973.333 280.832 980.517 325.989 985.194C336.23 986.254 346.611 985.934 356.917 986.248Z" stroke="#CB333B" stroke-width="4" stroke-miterlimit="10"/>
<path d="M247.852 940.216C260.31 942.742 272.769 945.267 285.227 947.793C290.484 948.175 295.754 948.379 300.97 948.958C341.981 953.56 383.018 957.917 423.952 963.005C447.096 965.897 470.159 969.184 493.525 967.271C564.256 961.435 634.193 950.86 702.652 931.605C728.059 924.459 751.276 913.043 773.077 898.608C827.57 862.563 869.413 814.594 903.606 759.495C932.28 713.297 952.703 663.604 966.074 611.025C982.83 545.127 993.143 478.515 987.219 410.137C983.575 367.954 974.732 327.016 958.884 287.687C940.105 241.114 916.167 197.504 884.301 158.366C855.37 122.852 821.169 94.217 778.9 75.9242C742.267 60.0723 703.894 50.3346 664.248 46.7606C638.996 44.4878 613.534 43.6982 588.171 43.6574C567.299 43.6161 546.159 43.8849 525.634 47.0792C493.736 52.0668 463.695 64.1942 433.887 76.3004C399.973 90.1021 366.626 105.385 332.477 118.547C265.128 144.471 201.155 176.34 143.3 219.856C100.857 251.785 62.8193 287.728 35.3338 333.802C19.8007 359.824 4.99809 386.29 -3.4451 415.457C-14.3491 453.052 -18.2898 491.83 -18.5071 530.908C-18.7663 576.377 -11.5666 621.035 -2.00893 665.305C4.50736 695.455 11.7207 725.428 24.8089 753.745C35.5872 777.04 51.0436 797.161 65.35 818.12C76.1596 833.951 88.8357 847.884 102.727 861.107C136.175 893.005 176.671 912.737 218.548 930.268C228.046 934.242 238.076 936.936 247.852 940.216Z" stroke="#CB333B" stroke-width="4" stroke-miterlimit="10"/>
</svg>
