<svg width="706" height="684" viewBox="0 0 706 684" fill="none" xmlns="http://www.w3.org/2000/svg">
<path d="M250.462 0C259.515 0 268.568 0 277.621 0C281.344 0.476721 285.051 1.08057 288.774 1.41427C318.049 4.00445 347.308 6.76943 376.598 9.01002C393.161 10.2654 409.724 11.2347 425.761 15.8748C474.303 29.9539 521.621 47.2271 566.679 70.3481C583.4 78.929 597.99 90.1796 611.164 103.337C644.098 136.199 666.515 175.592 682.585 218.878C696.061 255.173 703.284 292.738 705.177 331.321C707.548 379.676 705.321 427.618 691.51 474.496C682.998 503.417 671.034 530.733 654.408 555.936C634.711 585.778 611.832 612.824 584.052 635.627C558.835 656.317 530.912 671.461 498.821 678.246C471.01 684.126 442.849 685.492 414.672 682.378C396.725 680.391 378.842 677.34 361.134 673.781C346.56 670.857 331.843 667.679 317.969 662.546C296.411 654.553 277.159 641.841 258.067 629.176C236.349 614.747 215.237 599.365 193.264 585.349C149.925 557.731 109.783 526.442 75.5603 487.892C50.4539 459.606 28.9909 429.144 16.3263 393.104C9.16672 372.748 2.57987 352.185 0.81383 330.637C-1.47725 302.861 1.25932 275.243 6.63699 247.942C12.8897 216.177 24.2337 186.032 37.1688 156.491C45.9831 136.374 55.2588 116.479 68.4007 98.5699C79.2196 83.8392 92.8547 71.9848 105.806 59.3835C115.591 49.865 126.409 41.9355 137.976 34.6735C165.835 17.146 196.892 9.10536 228.601 2.79676C235.793 1.3666 243.175 0.905769 250.462 0Z" fill="#CB333B"/>
</svg>
