<svg width="222" height="222" viewBox="0 0 222 222" fill="none" xmlns="http://www.w3.org/2000/svg">
<path d="M186.199 75.37L185.846 71.8069L186.199 75.37ZM189.775 150.387H193.356H189.775ZM186.199 146.63L185.846 150.194L186.199 146.63ZM189.775 186.193H186.194H189.775ZM35.8022 146.63L36.1555 150.193L35.8022 146.63ZM35.8022 75.3698L35.4489 78.933L35.8022 75.3698ZM189.775 35.8062L186.194 35.8062V35.8062L189.775 35.8062ZM35.8072 35.8062H186.194V28.6449H35.8072V35.8062ZM35.8072 71.6129L35.8072 35.8062L28.6459 35.8062L28.6459 71.6129L35.8072 71.6129ZM71.6137 111C71.6137 90.5724 56.0655 73.7806 36.1555 71.8067L35.4489 78.933C51.732 80.5474 64.4524 94.2904 64.4524 111H71.6137ZM36.1555 150.193C56.0655 148.219 71.6137 131.428 71.6137 111H64.4524C64.4524 127.71 51.732 141.453 35.4489 143.067L36.1555 150.193ZM35.8072 186.193L35.8072 150.387L28.6459 150.387L28.6459 186.193H35.8072ZM186.194 186.193H35.8072V193.355H186.194V186.193ZM186.194 150.387L186.194 186.193H193.356L193.356 150.387L186.194 150.387ZM150.388 111C150.388 131.428 165.936 148.22 185.846 150.194L186.553 143.067C170.27 141.453 157.549 127.71 157.549 111H150.388ZM185.846 71.8069C165.936 73.7808 150.388 90.5726 150.388 111H157.549C157.549 94.2906 170.27 80.5476 186.553 78.9332L185.846 71.8069ZM186.194 35.8062L186.194 71.6131L193.356 71.6131L193.356 35.8062L186.194 35.8062ZM186.553 78.9332C190.128 78.5788 193.356 75.6488 193.356 71.6131L186.194 71.6131C186.194 71.6164 186.195 71.6133 186.195 71.6138C186.193 71.6174 186.184 71.6373 186.156 71.6663C186.093 71.7309 185.983 71.7933 185.846 71.8069L186.553 78.9332ZM193.356 150.387C193.356 146.352 190.128 143.422 186.553 143.067L185.846 150.194C185.983 150.207 186.093 150.27 186.156 150.334C186.184 150.363 186.193 150.383 186.195 150.387C186.195 150.387 186.194 150.384 186.194 150.387L193.356 150.387ZM186.194 193.355C190.149 193.355 193.356 190.148 193.356 186.193H186.194V193.355ZM35.4489 143.067C31.874 143.421 28.6459 146.351 28.6459 150.387L35.8072 150.387C35.8072 150.384 35.8068 150.387 35.807 150.386C35.8086 150.383 35.8179 150.363 35.846 150.334C35.9086 150.269 36.019 150.207 36.1555 150.193L35.4489 143.067ZM28.6459 71.6129C28.6459 75.6486 31.874 78.5786 35.4489 78.933L36.1555 71.8067C36.019 71.7931 35.9086 71.7307 35.846 71.6661C35.8179 71.6371 35.8086 71.6173 35.807 71.6136C35.8068 71.6131 35.8072 71.6162 35.8072 71.6129L28.6459 71.6129ZM186.194 35.8062V35.8062L193.356 35.8062C193.356 31.8512 190.149 28.6449 186.194 28.6449V35.8062ZM28.6459 186.193C28.6459 190.148 31.8522 193.355 35.8072 193.355V186.193H35.8072H28.6459ZM35.8072 28.6449C31.8522 28.6449 28.6459 31.8511 28.6459 35.8062L35.8072 35.8062V35.8062V28.6449Z" fill="white"/>
<circle cx="93.0974" cy="93.0964" r="10.7419" stroke="white" stroke-width="7.16129"/>
<circle cx="128.904" cy="128.903" r="10.7419" stroke="white" stroke-width="7.16129"/>
<path d="M85.9355 132.483L132.484 85.9346" stroke="white" stroke-width="7.16129" stroke-linecap="round"/>
</svg>
