<svg width="202" height="236" viewBox="0 0 202 236" fill="none" xmlns="http://www.w3.org/2000/svg">
<path d="M3.33789 89.5495C3.33789 86.0206 6.67244 83.3824 10.1295 84.0908C24.6118 87.0583 62.1316 93.3005 121.499 93.3005C180.867 93.3005 218.387 87.0583 232.869 84.0908C236.326 83.3824 239.66 86.0206 239.66 89.5495V109.413C239.66 168.739 191.567 216.833 132.241 216.833H110.757C51.4311 216.833 3.33789 168.739 3.33789 109.413V89.5495Z" stroke="white" stroke-width="6"/>
<path d="M19.3125 111.275C19.3125 111.275 59.9128 120.745 137.753 118.294" stroke="white" stroke-width="6" stroke-linecap="round"/>
<path d="M100.016 227.575H97.0156V228.283L97.3323 228.917L100.016 227.575ZM100.016 216.303L100.312 213.317L97.0156 212.99V216.303H100.016ZM142.983 227.575L145.667 228.917L145.983 228.283V227.575H142.983ZM142.983 216.303H145.983V212.99L142.687 213.317L142.983 216.303ZM103.016 227.575V216.303H97.0156V227.575H103.016ZM121.499 229.946C112.356 229.946 107.438 228.635 104.927 227.519C103.682 226.966 103.043 226.467 102.764 226.21C102.693 226.145 102.644 226.094 102.613 226.059C102.582 226.025 102.568 226.006 102.568 226.006C102.568 226.006 102.581 226.023 102.604 226.061C102.615 226.079 102.629 226.103 102.645 226.132C102.653 226.146 102.662 226.162 102.671 226.179C102.675 226.187 102.68 226.196 102.685 226.205C102.687 226.21 102.689 226.214 102.692 226.219C102.693 226.221 102.695 226.225 102.695 226.226C102.697 226.23 102.699 226.233 100.016 227.575C97.3323 228.917 97.3342 228.92 97.3361 228.924C97.3367 228.925 97.3386 228.929 97.3399 228.932C97.3424 228.937 97.345 228.942 97.3477 228.947C97.3531 228.957 97.3587 228.968 97.3645 228.979C97.3762 229.001 97.3888 229.025 97.4024 229.049C97.4297 229.098 97.4611 229.152 97.4969 229.21C97.5685 229.326 97.6577 229.459 97.7677 229.606C97.9883 229.9 98.2891 230.245 98.6941 230.619C99.5062 231.368 100.713 232.212 102.49 233.002C106.02 234.571 111.845 235.946 121.499 235.946V229.946ZM142.983 227.575C140.3 226.233 140.302 226.23 140.304 226.226C140.304 226.225 140.306 226.221 140.307 226.219C140.31 226.214 140.312 226.21 140.314 226.205C140.319 226.196 140.324 226.187 140.328 226.179C140.337 226.162 140.346 226.146 140.354 226.132C140.37 226.103 140.384 226.079 140.395 226.061C140.418 226.023 140.431 226.006 140.431 226.006C140.431 226.006 140.417 226.025 140.386 226.059C140.355 226.094 140.306 226.145 140.235 226.21C139.956 226.467 139.317 226.966 138.072 227.519C135.561 228.635 130.643 229.946 121.499 229.946V235.946C131.154 235.946 136.979 234.571 140.509 233.002C142.286 232.212 143.493 231.368 144.305 230.619C144.71 230.245 145.011 229.9 145.231 229.606C145.341 229.459 145.43 229.326 145.502 229.21C145.538 229.152 145.569 229.098 145.597 229.049C145.61 229.025 145.623 229.001 145.635 228.979C145.64 228.968 145.646 228.957 145.651 228.947C145.654 228.942 145.657 228.937 145.659 228.932C145.66 228.929 145.662 228.925 145.663 228.924C145.665 228.92 145.667 228.917 142.983 227.575ZM139.983 216.303V227.575H145.983V216.303H139.983ZM142.687 213.317C139.252 213.658 135.768 213.833 132.241 213.833V219.833C135.966 219.833 139.648 219.649 143.28 219.288L142.687 213.317ZM132.241 213.833H110.757V219.833H132.241V213.833ZM110.757 213.833C107.231 213.833 103.747 213.658 100.312 213.317L99.7192 219.288C103.351 219.649 107.033 219.833 110.757 219.833V213.833Z" fill="white"/>
<path d="M34.1725 9.55484L37.1704 9.44182L34.1725 9.55484ZM25.0512 5.42128L27.3605 7.33625V7.33625L25.0512 5.42128ZM70.0965 69.2026L68.5965 71.8006L70.0965 69.2026ZM139.716 70.489L138.315 67.8362L139.716 70.489ZM147.857 76.3213L150.67 77.3637V77.3637L147.857 76.3213ZM142.661 87.3697L140.063 85.8697V85.8697L142.661 87.3697ZM138.967 93.1274L139.03 96.1267L140.539 96.095L141.413 94.8645L138.967 93.1274ZM16.9488 85.3524L14.3025 86.7656L14.9873 88.048L16.4182 88.3051L16.9488 85.3524ZM18.0818 15.4438L15.4838 13.9438L18.0818 15.4438ZM37.1704 9.44182C37.0333 5.80522 34.83 2.85885 32.017 1.51264C29.1035 0.118356 25.3212 0.395876 22.7419 3.5063L27.3605 7.33625C27.7107 6.91401 28.0384 6.7747 28.3008 6.72821C28.5955 6.676 28.9862 6.71393 29.4269 6.9248C30.3417 7.36259 31.1261 8.37978 31.1747 9.66786L37.1704 9.44182ZM71.5965 66.6045C50.2914 54.304 38.034 32.3474 37.1704 9.44182L31.1747 9.66786C32.1127 34.5482 45.4308 58.4259 68.5965 71.8006L71.5965 66.6045ZM138.315 67.8362C118.046 78.5419 92.902 78.9053 71.5965 66.6045L68.5965 71.8006C91.7626 85.1756 119.101 84.7703 141.117 73.1417L138.315 67.8362ZM150.67 77.3637C152.074 73.5747 150.423 70.1604 147.759 68.3345C145.186 66.5715 141.533 66.1366 138.315 67.8362L141.117 73.1417C142.257 72.5397 143.53 72.7104 144.367 73.2837C144.77 73.5599 144.998 73.8793 145.1 74.1607C145.191 74.4111 145.234 74.7646 145.044 75.2789L150.67 77.3637ZM145.259 88.8697C147.417 85.1318 149.218 81.283 150.67 77.3637L145.044 75.2789C143.708 78.883 142.052 82.4254 140.063 85.8697L145.259 88.8697ZM141.413 94.8645C142.775 92.9461 144.06 90.9472 145.259 88.8697L140.063 85.8697C138.958 87.7841 137.775 89.6248 136.521 91.3902L141.413 94.8645ZM121.764 96.3062C127.74 96.3062 133.495 96.2431 139.03 96.1267L138.904 90.128C133.411 90.2436 127.697 90.3062 121.764 90.3062V96.3062ZM16.4182 88.3051C34.2966 91.5182 69.6776 96.3062 121.764 96.3062V90.3062C70.0472 90.3062 35.0214 85.5523 17.4795 82.3997L16.4182 88.3051ZM15.4838 13.9438C2.04779 37.2156 2.5181 64.6977 14.3025 86.7656L19.5951 83.9393C8.74612 63.623 8.32311 38.3465 20.6799 16.9438L15.4838 13.9438ZM22.7419 3.5063C20.0742 6.72335 17.6416 10.2064 15.4838 13.9438L20.6799 16.9438C22.6682 13.5 24.9074 10.2945 27.3605 7.33625L22.7419 3.5063Z" fill="white"/>
<path d="M203.107 88.8191L203.466 91.7974L205.133 91.5961L205.833 90.0701L203.107 88.8191ZM107.671 93.1815L105.071 94.677L105.919 96.152L107.62 96.1811L107.671 93.1815ZM204.974 66.446C204.974 73.99 203.329 81.1414 200.38 87.568L205.833 90.0701C209.135 82.8744 210.974 74.8709 210.974 66.446H204.974ZM154.264 15.7363C182.271 15.7363 204.974 38.4398 204.974 66.446H210.974C210.974 35.1261 185.584 9.73633 154.264 9.73633V15.7363ZM103.555 66.446C103.555 38.4398 126.258 15.7363 154.264 15.7363V9.73633C122.944 9.73633 97.5547 35.1261 97.5547 66.446H103.555ZM110.272 91.686C105.999 84.2559 103.555 75.641 103.555 66.446H97.5547C97.5547 76.7183 100.289 86.3612 105.071 94.677L110.272 91.686ZM107.62 96.1811C112.189 96.2593 116.903 96.301 121.763 96.301V90.301C116.938 90.301 112.257 90.2596 107.723 90.182L107.62 96.1811ZM121.763 96.301C156.511 96.301 183.824 94.1701 203.466 91.7974L202.747 85.8407C183.338 88.1852 156.265 90.301 121.763 90.301V96.301Z" fill="white"/>
</svg>
