<svg width="970" height="1357" viewBox="0 0 970 1357" fill="none" xmlns="http://www.w3.org/2000/svg">
<path d="M653.043 769.383C647.961 777.383 642.879 785.383 637.797 793.383C635.286 796.405 632.671 799.342 630.287 802.445C611.564 826.86 592.695 851.164 574.272 875.789C563.865 889.721 553.711 903.813 540.607 915.38C500.914 950.371 459.085 982.486 413.355 1009.32C396.384 1019.28 378.25 1025.86 359.225 1030.11C311.692 1040.76 264.289 1038.45 217.009 1028.35C177.365 1019.88 140.107 1005.17 104.942 985.183C60.8714 960.128 19.747 931.241 -13.9344 892.717C-34.7186 868.957 -52.1462 843.047 -65.0889 814.204C-80.4091 780.042 -91.4711 744.639 -96.0321 707.287C-100.163 673.386 -97.8739 640.208 -85.8569 608.04C-75.4418 580.163 -60.8413 554.51 -42.2712 531.359C-30.441 516.615 -17.7055 502.524 -4.61886 488.875C6.14653 477.638 17.217 466.417 29.5417 457.039C48.7084 442.475 70.7515 432.601 92.6632 422.84C117.608 411.75 143.055 401.729 167.777 390.182C216.517 367.39 266.706 349.485 319.991 340.888C359.085 334.583 398.058 332.72 437.022 341.764C459.034 346.867 480.906 352.591 500.943 363.129C526.78 376.7 549.655 394.625 570.766 414.706C595.332 438.066 615.608 465.016 634.457 493.033C647.291 512.118 659.669 531.485 668.121 553.154C675.067 570.985 677.891 589.69 681.759 608.21C684.679 622.201 685.615 636.214 685.54 650.513C685.394 684.972 675.067 716.931 662.843 748.495C660.07 755.652 656.333 762.435 653.043 769.383Z" stroke="#CB333B" stroke-width="4" stroke-miterlimit="10"/>
<path d="M645.557 789.703C640.475 797.703 635.393 805.703 630.311 813.703C627.8 816.725 625.185 819.662 622.8 822.765C604.077 847.18 585.209 871.484 566.786 896.11C556.379 910.041 546.225 924.133 533.121 935.7C493.427 970.691 451.598 1002.81 405.869 1029.64C388.898 1039.6 370.764 1046.18 351.739 1050.43C304.206 1061.08 256.803 1058.78 209.523 1048.67C169.879 1040.2 132.621 1025.49 97.4558 1005.5C53.3851 980.448 12.2607 951.562 -21.4207 913.037C-42.205 889.277 -59.6325 863.367 -72.5753 834.524C-87.8955 800.363 -98.9574 764.959 -103.518 727.608C-107.649 693.706 -105.36 660.529 -93.3432 628.361C-82.9281 600.483 -68.3277 574.83 -49.7575 551.679C-37.9273 536.935 -25.1919 522.845 -12.1052 509.195C-1.3398 497.958 9.7307 486.737 22.0554 477.359C41.2221 462.796 63.2652 452.921 85.1769 443.161C110.121 432.07 135.569 422.05 160.291 410.503C209.031 387.711 259.219 369.806 312.505 361.208C351.599 354.903 390.572 353.041 429.536 362.085C451.547 367.187 473.419 372.911 493.456 383.449C519.294 397.021 542.168 414.946 563.279 435.026C587.846 458.387 608.122 485.337 626.971 513.353C639.805 532.438 652.182 551.805 660.634 573.474C667.581 591.305 670.405 610.01 674.273 628.53C677.193 642.521 678.128 656.534 678.054 670.833C677.907 705.293 667.58 737.252 655.356 768.815C652.584 775.973 648.847 782.755 645.557 789.703Z" stroke="#CB333B" stroke-width="4" stroke-miterlimit="10"/>
</svg>
