<svg width="936" height="608" viewBox="0 0 936 608" fill="none" xmlns="http://www.w3.org/2000/svg">
<path d="M713.147 714.796C705.105 718.665 697.062 722.534 689.02 726.402C685.509 727.57 681.958 728.618 678.508 729.912C651.394 740.122 624.22 750.169 597.242 760.696C581.992 766.659 566.864 772.876 550.634 775.607C501.493 783.842 452.076 788.716 402.165 787.428C383.643 786.95 365.873 783.189 348.546 777.128C305.242 762.004 268.489 736.582 235.711 704.988C208.225 678.499 185.751 648.207 167.577 614.734C144.801 572.782 126.287 529.232 118.517 481.678C113.717 452.343 112.669 422.958 116.666 393.459C121.407 358.525 130.171 324.716 145.102 292.583C158.66 263.423 176.992 238.034 202.599 218.29C224.792 201.181 249.225 187.931 275.587 178.657C292.379 172.752 309.57 167.82 326.823 163.415C341.019 159.785 355.451 156.319 369.97 154.951C392.538 152.84 415.074 155.908 437.448 159.002C462.909 162.541 488.24 167.185 513.749 170.249C564.056 176.267 613.09 186.913 659.97 206.541C694.364 220.944 726.452 238.838 753.108 265.449C768.17 280.476 782.81 295.931 793.59 314.323C807.499 338.024 816.873 363.733 823.765 390.289C831.789 421.186 834.597 452.818 835.733 484.594C836.502 506.236 836.766 527.878 832.747 549.407C829.433 567.119 822.387 583.479 816.268 600.211C811.645 612.85 805.423 624.519 798.252 635.915C780.996 663.395 756.844 683.812 731.371 702.968C725.594 707.312 719.233 710.877 713.147 714.796Z" stroke="#CB333B" stroke-width="4" stroke-miterlimit="10"/>
<path d="M697.055 727.32C689.013 731.189 680.971 735.058 672.928 738.927C669.417 740.094 665.866 741.142 662.416 742.436C635.303 752.646 608.128 762.693 581.15 773.22C565.9 779.183 550.773 785.4 534.542 788.131C485.402 796.366 435.984 801.24 386.074 799.953C367.551 799.474 349.781 795.713 332.454 789.652C289.15 774.528 252.397 749.106 219.619 717.512C192.133 691.023 169.659 660.731 151.485 627.259C128.709 585.306 110.195 541.756 102.425 494.202C97.6248 464.867 96.5771 435.482 100.574 405.983C105.316 371.049 114.079 337.241 129.01 305.107C142.568 275.947 160.9 250.558 186.507 230.814C208.7 213.705 233.133 200.455 259.495 191.181C276.288 185.276 293.478 180.344 310.731 175.939C324.927 172.309 339.36 168.843 353.878 167.475C376.446 165.364 398.982 168.432 421.357 171.526C446.817 175.065 472.148 179.71 497.658 182.773C547.964 188.791 596.998 199.437 643.879 219.065C678.272 233.468 710.36 251.362 737.016 277.973C752.078 293 766.719 308.456 777.498 326.847C791.407 350.548 800.781 376.257 807.673 402.813C815.697 433.71 818.505 465.342 819.641 497.118C820.41 518.76 820.675 540.402 816.655 561.931C813.341 579.643 806.295 596.003 800.177 612.735C795.553 625.374 789.331 637.043 782.16 648.439C764.904 675.919 740.752 696.336 715.28 715.492C709.502 719.837 703.141 723.401 697.055 727.32Z" stroke="#CB333B" stroke-width="4" stroke-miterlimit="10"/>
</svg>
