<svg width="105" height="67" viewBox="0 0 105 67" fill="none" xmlns="http://www.w3.org/2000/svg">
<path d="M1.73633 38.2716C1.73633 36.4949 3.42042 35.1652 5.1627 35.513C11.7191 36.8218 27.6303 39.36 52.4252 39.36C77.2202 39.36 93.1313 36.8218 99.6877 35.513C101.43 35.1652 103.114 36.4949 103.114 38.2716V41.6641C103.114 69.6588 80.4199 92.353 52.4252 92.353V92.353C24.4305 92.353 1.73633 69.6588 1.73633 41.6641V38.2716Z" stroke="white" stroke-width="3.37147"/>
<path d="M8.58594 47.0703C8.58594 47.0703 26.0027 51.1324 59.3947 50.0813" stroke="white" stroke-width="3.37147" stroke-linecap="round"/>
<path d="M9.90637 3.13082L11.2665 4.12664H11.2665L9.90637 3.13082ZM15.0928 5.29482L16.7705 5.12998V5.12998L15.0928 5.29482ZM8.06079 5.96252L6.6009 5.11965V5.11965L8.06079 5.96252ZM7.57265 35.948L6.08554 36.7419L6.47031 37.4627L7.27448 37.6072L7.57265 35.948ZM59.921 39.2832L59.9565 40.9686L60.8045 40.9507L61.2955 40.2591L59.921 39.2832ZM61.5029 36.8173L60.043 35.9744V35.9745L61.5029 36.8173ZM63.0293 33.8102L61.487 33.1298V33.1298L63.0293 33.8102ZM58.5629 30.3995L57.8672 28.864V28.864L58.5629 30.3995ZM30.3772 29.0244L31.2201 27.5645L30.3772 29.0244ZM11.2665 4.12664C11.4453 3.88242 11.6082 3.81173 11.7251 3.78644C11.8634 3.75654 12.068 3.76559 12.3202 3.87898C12.8493 4.11686 13.3411 4.7064 13.4152 5.45965L16.7705 5.12998C16.5737 3.12736 15.2902 1.51774 13.7027 0.804008C12.041 0.0568664 9.9093 0.2732 8.54621 2.13501L11.2665 4.12664ZM9.52068 6.80539C10.0604 5.87049 10.6438 4.97726 11.2665 4.12664L8.54621 2.13501C7.85163 3.08372 7.20168 4.07906 6.6009 5.11965L9.52068 6.80539ZM9.05977 35.1542C4.46984 26.556 4.29232 15.8612 9.52068 6.80539L6.6009 5.11965C0.766234 15.2256 0.970238 27.1595 6.08554 36.7419L9.05977 35.1542ZM7.27448 37.6072C14.9664 38.9895 30.1677 41.0458 52.5363 41.0458V37.6743C30.3754 37.6743 15.3736 35.6372 7.87083 34.2889L7.27448 37.6072ZM52.5363 41.0458C55.1043 41.0458 57.5779 41.0187 59.9565 40.9686L59.8855 37.5979C57.5305 37.6474 55.0806 37.6743 52.5363 37.6743V41.0458ZM60.043 35.9745C59.5759 36.7835 59.0762 37.5613 58.5465 38.3073L61.2955 40.2591C61.8861 39.4273 62.4429 38.5607 62.9628 37.6602L60.043 35.9745ZM61.487 33.1298C61.0624 34.0921 60.5815 35.0417 60.043 35.9744L62.9628 37.6602C63.5622 36.622 64.0981 35.5639 64.5716 34.4906L61.487 33.1298ZM59.2585 31.935C59.948 31.6226 60.7044 31.754 61.1749 32.0934C61.3991 32.2551 61.5092 32.4279 61.5524 32.5626C61.589 32.6765 61.6091 32.8529 61.487 33.1298L64.5716 34.4906C65.5029 32.3795 64.625 30.425 63.1473 29.3591C61.7357 28.3408 59.7001 28.0336 57.8672 28.864L59.2585 31.935ZM29.5344 30.4843C38.983 35.9394 50.0307 36.1159 59.2585 31.935L57.8672 28.864C49.5868 32.6156 39.6876 32.4532 31.2201 27.5645L29.5344 30.4843ZM13.4152 5.45965C14.4061 15.5447 20.0833 25.0277 29.5344 30.4843L31.2201 27.5645C22.7504 22.6745 17.6596 14.1795 16.7705 5.12998L13.4152 5.45965Z" fill="white"/>
<path d="M87.4244 37.4431L87.6265 39.1167L88.5629 39.0036L88.9564 38.1464L87.4244 37.4431ZM46.4885 39.3137L45.0273 40.1543L45.5039 40.9828L46.4596 40.9992L46.4885 39.3137ZM87.8287 27.8412C87.8287 31.0204 87.135 34.033 85.8924 36.7398L88.9564 38.1464C90.3975 35.0073 91.2001 31.5157 91.2001 27.8412H87.8287ZM66.474 6.48652C78.2679 6.48652 87.8287 16.0473 87.8287 27.8412H91.2001C91.2001 14.1853 80.1299 3.11505 66.474 3.11505V6.48652ZM45.1193 27.8412C45.1193 16.0473 54.6801 6.48652 66.474 6.48652V3.11505C52.8181 3.11505 41.7479 14.1853 41.7479 27.8412H45.1193ZM47.9497 38.4731C46.1495 35.3439 45.1193 31.7154 45.1193 27.8412H41.7479C41.7479 32.321 42.9407 36.5272 45.0273 40.1543L47.9497 38.4731ZM46.4596 40.9992C48.4226 41.0328 50.4483 41.0507 52.5364 41.0507V37.6792C50.4676 37.6792 48.4611 37.6615 46.5173 37.6282L46.4596 40.9992ZM52.5364 41.0507C67.4548 41.0507 79.1854 40.1361 87.6265 39.1167L87.2223 35.7696C78.9123 36.7731 67.3167 37.6792 52.5364 37.6792V41.0507Z" fill="white"/>
</svg>
