<svg width="274" height="274" viewBox="0 0 274 274" fill="none" xmlns="http://www.w3.org/2000/svg">
<circle cx="137" cy="137" r="135.5" fill="white" stroke="#CB333B" stroke-width="3"/>
<rect x="99.4824" y="78.4062" width="82.6215" height="110.443" fill="white"/>
<path d="M115.625 63.2305C117.549 63.2305 119.474 63.2305 121.398 63.2305C122.189 63.3333 122.977 63.4635 123.769 63.5355C129.991 64.0942 136.211 64.6906 142.437 65.1739C145.957 65.4447 149.478 65.6538 152.887 66.6547C163.205 69.6915 173.263 73.4173 182.84 78.4045C186.395 80.2554 189.496 82.6822 192.296 85.5202C199.296 92.6085 204.062 101.106 207.477 110.442C210.342 118.271 211.877 126.374 212.28 134.696C212.783 145.126 212.31 155.468 209.375 165.579C207.565 171.817 205.022 177.709 201.488 183.146C197.301 189.583 192.438 195.416 186.533 200.335C181.173 204.798 175.238 208.064 168.416 209.528C162.505 210.796 156.519 211.091 150.53 210.419C146.715 209.991 142.914 209.332 139.149 208.565C136.052 207.934 132.923 207.248 129.974 206.141C125.392 204.417 121.3 201.675 117.242 198.943C112.625 195.831 108.137 192.513 103.467 189.49C94.2548 183.533 85.7223 176.784 78.4478 168.468C73.1112 162.367 68.549 155.797 65.8571 148.023C64.3352 143.632 62.9351 139.197 62.5597 134.549C62.0727 128.557 62.6544 122.6 63.7975 116.712C65.1266 109.86 67.5379 103.358 70.2873 96.9856C72.1609 92.6462 74.1326 88.3549 76.926 84.492C79.2257 81.3146 82.124 78.7576 84.8768 76.0395C86.9567 73.9863 89.2564 72.2759 91.715 70.7095C97.6367 66.9289 104.238 65.1945 110.978 63.8337C112.507 63.5252 114.076 63.4258 115.625 63.2305ZM177.439 159.262C177.527 155.145 176.915 151.149 176.083 147.162C174.791 140.958 173.188 134.844 170.537 129.078C166.164 119.574 161.511 110.22 156.113 101.253C153.671 97.1981 151.297 93.1158 148.064 89.6368C145.46 86.833 142.602 84.3137 138.774 83.5322C133.566 82.4697 128.557 83.3677 123.894 85.9178C118.195 89.0335 114.387 94.0516 111.1 99.5015C109.5 102.154 108.077 104.934 106.764 107.745C105.939 109.514 105.222 111.402 104.867 113.318C103.684 119.714 104.428 126.076 105.709 132.369C106.954 138.47 109.396 144.174 111.807 149.867C115.956 159.67 120.975 168.962 128.013 176.996C132.771 182.429 138.145 187.05 144.99 189.565C150.621 191.636 156.049 191.166 161.203 187.917C164.734 185.692 167.686 182.816 170.334 179.629C173.056 176.352 175.37 172.75 176.283 168.52C176.935 165.493 177.071 162.354 177.439 159.262Z" fill="#CB333B"/>
</svg>
