<svg width="69" height="60" viewBox="0 0 69 60" fill="none" xmlns="http://www.w3.org/2000/svg">
<path d="M65.2604 18.3966L65.3692 18.4646C65.949 18.8451 68.2595 20.5384 68.266 23.4851V56.2915C68.266 58.0508 66.7893 59.4998 64.9489 59.4998H3.81714C1.97045 59.4998 0.5 58.0446 0.5 56.2915V23.1934C0.5 22.1457 0.913114 21.2077 1.46236 20.4146L1.48296 20.3848L1.48751 20.3757C1.4929 20.3689 1.4988 20.3615 1.50525 20.3534C1.51849 20.3368 1.53448 20.3168 1.54876 20.2984L1.55443 20.2911L1.55984 20.2836C2.42024 19.0866 3.52287 18.3422 3.63418 18.267C3.63657 18.2654 3.6385 18.2641 3.63996 18.2631L3.6761 18.2386L3.67811 18.2366L13.1988 12.4023L13.4376 12.256V11.976V7.5614C13.4376 6.32311 14.48 5.28986 15.7905 5.28986H24.6734H24.8143L24.9345 5.21624L30.6884 1.69227L30.6969 1.68704L30.7052 1.68147C33.0735 0.0971283 36.2347 0.105346 38.5863 1.70946L38.5944 1.71499L38.6027 1.7202L44.1823 5.2136L44.304 5.28981H44.4476H53.5841C54.8945 5.28981 55.937 6.32303 55.937 7.56136V12.2909V12.568L56.172 12.7149L65.2604 18.3966ZM1.47389 20.3958L1.47463 20.3947C1.47312 20.397 1.47271 20.3975 1.47389 20.3958ZM3.64813 18.2566C3.64734 18.2571 3.64689 18.2574 3.64872 18.2562L3.64813 18.2566ZM56.4324 14.4552L54.719 14.4709L55.9447 15.2371V25.8961V26.8074L56.7133 26.3179L65.2963 20.8514L65.8409 20.5045L65.3687 20.064C65.1568 19.8664 64.9637 19.7166 64.8212 19.6145C64.7499 19.5633 64.6912 19.524 64.6493 19.4968C64.6421 19.4921 64.6355 19.4878 64.6294 19.4839L64.5193 19.377H64.4534L56.9447 14.683V14.4506L56.4402 14.4552L56.4324 14.4552ZM31.4635 2.68639L31.4611 2.6875C31.4645 2.68583 31.4656 2.68542 31.4635 2.68639ZM31.4352 2.69453L31.3476 2.7538L28.735 4.35589L27.2245 5.28213H28.9964H40.1721H41.9112L40.4377 4.35848L37.8894 2.76109C37.8875 2.75947 37.8855 2.75782 37.8834 2.75614C37.8612 2.73805 37.837 2.72093 37.8102 2.70518C35.9056 1.41386 33.3464 1.40046 31.4352 2.69453ZM54.3983 27.7991L54.6296 27.6517L54.6296 27.3775L54.6291 7.55368C54.6291 6.97212 54.1467 6.52401 53.5838 6.52401H15.7907C15.2278 6.52401 14.7455 6.97211 14.7455 7.55368L14.7455 27.6308L14.7455 27.9074L14.9799 28.0544L29.3554 37.0684L29.6197 37.2341L29.8847 37.0696L31.6786 35.9562L31.6901 35.949L31.7012 35.9413C33.4971 34.687 35.8844 34.6876 37.6716 35.9407L37.6835 35.9491L37.6959 35.9567L39.4109 37.0161L39.6778 37.181L39.9424 37.0123L54.3983 27.7991ZM4.37814 19.2812L4.36757 19.2877L4.35734 19.2947C4.12007 19.4567 3.77375 19.7288 3.42152 20.071L2.96471 20.5148L3.50423 20.8532L12.6722 26.604L13.4378 27.0843V26.1804V14.6252V13.7327L12.6767 14.1988L4.37814 19.2812ZM2.73927 21.8787L2.21376 21.5494L2.0034 22.1328C1.88572 22.4592 1.80781 22.8165 1.80781 23.1855L1.80722 53.5976L1.8072 54.4965L2.57091 54.0225L27.7428 38.3981L28.4239 37.9754L27.7446 37.5496L2.73927 21.8787ZM2.05084 55.8365L1.81459 55.9832V56.2613V56.2768C1.81459 57.3726 2.72427 58.2358 3.81635 58.2358H64.9481C65.8674 58.2358 66.6574 57.6241 66.8844 56.7771L66.9568 56.7771L66.9574 56.2774L66.958 55.8163L66.9583 55.5373L66.7211 55.3905L36.9582 36.9721L36.9097 36.942L36.9075 36.9413C35.585 36.0086 33.81 36.0103 32.482 36.9422C32.4807 36.943 32.4789 36.944 32.4764 36.9455L32.4751 36.9462C32.4657 36.9517 32.4484 36.9617 32.4277 36.975L2.05084 55.8365ZM36.9449 36.9675L36.9431 36.9663C36.9449 36.9675 36.9458 36.9682 36.9449 36.9675ZM66.5113 53.6486L67.9202 53.4742L66.9421 52.869L66.9427 23.4855C66.9427 23.0054 66.8616 22.5707 66.7378 22.1763L66.5424 21.5538L65.9921 21.9043L41.5386 37.482L40.8669 37.9099L41.5441 38.3289L65.9421 53.4262L65.9421 53.719L66.5036 53.6496L66.5113 53.6486Z" fill="white" stroke="white"/>
<path d="M34.7494 30.0872L34.7495 30.0873C36.9959 28.9459 39.5029 27.1507 41.4368 25.291L41.4368 25.2909C42.2788 24.4813 43.2054 23.4753 43.9464 22.3795C44.6908 21.2787 45.223 20.1236 45.3265 19.0101C45.4577 17.5623 44.8461 16.2872 43.4703 15.3088C41.7796 14.1071 40.0894 13.6528 38.4406 13.8972C36.8077 14.1431 35.5636 15.0408 34.7522 15.8245L34.4117 16.1533L34.0647 15.8314C33.2091 15.0376 31.903 14.1304 30.2337 13.8979L34.7494 30.0872ZM34.7494 30.0872L34.7404 30.092M34.7494 30.0872L34.7404 30.092M34.7404 30.092C34.6529 30.1387 34.5414 30.1665 34.4226 30.1665C34.289 30.1665 34.1845 30.1366 34.1151 30.0935L34.104 30.0865L34.0925 30.0802C32.4507 29.1752 29.9178 27.5122 27.7454 25.575C24.9308 23.0576 23.5502 20.8509 23.4316 19.0017L23.4315 18.9999M34.7404 30.092L23.4315 18.9999M23.4315 18.9999C23.332 17.5304 24.0033 16.2453 25.5638 15.156M23.4315 18.9999L25.5638 15.156M24.6009 18.1825C24.7689 17.228 25.3702 16.4216 26.3458 15.7446C27.3474 15.0486 28.385 14.6683 29.4246 14.6683C29.6194 14.6683 29.8183 14.6857 29.9999 14.71L30.0023 14.7103L30.0023 14.7103C31.1774 14.8729 32.1545 15.4943 32.8216 16.0488C33.1586 16.3291 33.4261 16.6001 33.6108 16.8037C33.7033 16.9057 33.7759 16.9916 33.8268 17.0543C33.8522 17.0856 33.8728 17.1119 33.8882 17.1321C33.8957 17.142 33.9031 17.1518 33.9096 17.1609C33.912 17.1642 33.9154 17.1689 33.9191 17.1744C34.003 17.285 34.1781 17.3836 34.4227 17.3836H34.4259C34.6636 17.3778 34.8469 17.2701 34.9359 17.1436L34.9447 17.1312L34.9541 17.1193C34.9512 17.123 35.321 16.5982 35.9533 16.0444C36.5814 15.4942 37.511 14.8756 38.6618 14.7038L24.6009 18.1825ZM24.6009 18.1825L24.5035 18.1376L24.5598 18.978C24.623 19.9196 25.0571 20.8887 25.6814 21.8225C26.3097 22.7622 27.1567 23.7045 28.101 24.5993C29.9895 26.3888 32.3124 28.0303 34.1882 29.1256L34.4335 29.2688L34.6821 29.1315C36.7505 27.9893 38.9924 26.3226 40.7024 24.6435L40.7026 24.6433C43.3239 22.0663 44.0675 20.1826 44.1791 18.9685L44.1791 18.9679C44.2348 18.3532 44.1421 17.7768 43.8799 17.2485C43.6192 16.7229 43.2052 16.274 42.6615 15.8886C41.3284 14.9423 39.9704 14.5082 38.6619 14.7038L24.6009 18.1825ZM25.5638 15.156C27.1018 14.0889 28.6635 13.6803 30.2336 13.8979L25.5638 15.156Z" fill="white" stroke="white"/>
</svg>
