<svg width="681" height="751" viewBox="0 0 681 751" fill="none" xmlns="http://www.w3.org/2000/svg">
<path d="M261.91 713.689C254.539 708.659 247.167 703.629 239.795 698.598C237.029 696.141 234.346 693.59 231.5 691.249C209.101 672.873 186.813 654.363 164.207 636.263C151.418 626.038 138.47 616.045 127.99 603.355C96.2878 564.915 67.3578 524.555 43.5178 480.688C34.6708 464.408 29.0428 447.138 25.6288 429.102C17.0748 384.037 20.7138 339.497 31.6858 295.314C40.8838 258.266 55.8798 223.657 75.7808 191.181C100.725 150.481 129.183 112.672 166.482 82.1658C189.486 63.3408 214.41 47.7408 241.955 36.4528C274.58 23.0928 308.241 13.7778 343.535 10.6408C375.568 7.80279 406.721 10.9838 436.623 23.2888C462.537 33.9538 486.227 48.4888 507.441 66.6818C520.95 78.2718 533.817 90.6938 546.258 103.432C556.5 113.912 566.717 124.678 575.162 136.567C588.274 155.056 596.885 176.107 605.393 197.03C615.058 220.849 623.701 245.109 633.803 268.733C653.745 315.308 669.042 363.096 675.484 413.51C680.207 450.497 680.754 487.233 671.037 523.623C665.554 544.18 659.489 564.588 648.952 583.118C635.38 607.014 617.802 627.987 598.251 647.234C575.505 669.631 549.514 687.879 522.564 704.751C504.206 716.238 485.596 727.288 464.941 734.572C447.945 740.558 430.254 742.638 412.705 745.698C399.447 748.018 386.23 748.468 372.776 747.948C340.35 746.748 310.592 736.04 281.265 723.558C274.615 720.727 268.347 717.001 261.91 713.689Z" stroke="#CB333B" stroke-width="4" stroke-miterlimit="10"/>
<path d="M243.018 706.015C235.646 700.984 228.274 695.954 220.903 690.924C218.136 688.467 215.453 685.915 212.607 683.575C190.209 665.199 167.92 646.689 145.314 628.588C132.526 618.363 119.578 608.37 109.097 595.68C77.3952 557.241 48.4652 516.881 24.6252 473.013C15.7782 456.733 10.1512 439.463 6.73625 421.427C-1.81775 376.363 1.82122 331.823 12.7932 287.639C21.9912 250.591 36.9872 215.982 56.8882 183.506C81.8322 142.806 110.291 104.997 147.589 74.4907C170.594 55.6657 195.518 40.0666 223.063 28.7786C255.687 15.4176 289.349 6.10263 324.642 2.96663C356.675 0.127635 387.828 3.30964 417.73 15.6146C443.644 26.2786 467.335 40.8137 488.548 59.0077C502.058 70.5967 514.924 83.0187 527.365 95.7577C537.607 106.237 547.825 117.003 556.269 128.892C569.382 147.381 577.993 168.432 586.501 189.356C596.166 213.175 604.809 237.434 614.911 261.058C634.852 307.633 650.149 355.421 656.591 405.835C661.315 442.823 661.862 479.559 652.144 515.949C646.661 536.506 640.597 556.913 630.059 575.444C616.487 599.34 598.91 620.313 579.358 639.559C556.613 661.957 530.622 680.205 503.671 697.077C485.313 708.564 466.703 719.613 446.049 726.897C429.052 732.883 411.361 734.961 393.812 738.028C380.554 740.348 367.338 740.788 353.883 740.278C321.457 739.078 291.699 728.365 262.373 715.884C255.722 713.053 249.455 709.326 243.018 706.015Z" stroke="#CB333B" stroke-width="4" stroke-miterlimit="10"/>
</svg>
