<svg width="178" height="175" viewBox="0 0 178 175" fill="none" xmlns="http://www.w3.org/2000/svg">
<rect x="44" y="18" width="98" height="131" fill="white"/>
<path d="M63.1476 0C65.4301 0 67.7126 0 69.995 0C70.9337 0.121968 71.8683 0.276461 72.807 0.361838C80.1879 1.02453 87.5648 1.73195 94.9498 2.30519C99.1256 2.62638 103.301 2.87438 107.345 4.06153C119.584 7.66365 131.513 12.083 142.874 17.9984C147.09 20.1938 150.768 23.0723 154.089 26.4386C162.393 34.8462 168.045 44.9249 172.096 55.9996C175.494 65.2854 177.315 74.8965 177.793 84.7677C178.39 97.1394 177.829 109.405 174.347 121.399C172.201 128.798 169.184 135.787 164.992 142.235C160.026 149.87 154.258 156.79 147.254 162.624C140.896 167.917 133.856 171.792 125.765 173.528C118.753 175.032 111.653 175.382 104.549 174.585C100.024 174.077 95.5154 173.296 91.0507 172.385C87.3763 171.637 83.6658 170.824 80.1679 169.511C74.7325 167.466 69.8787 164.214 65.065 160.973C59.5895 157.282 54.2664 153.346 48.7267 149.76C37.7998 142.694 27.6791 134.689 19.0506 124.826C12.7207 117.589 7.30933 109.796 4.11627 100.575C2.31116 95.3668 0.650449 90.1059 0.205187 84.5929C-0.372451 77.4863 0.317505 70.4202 1.67335 63.4355C3.24982 55.3084 6.10993 47.596 9.37117 40.038C11.5935 34.891 13.9321 29.8008 17.2455 25.2189C19.9732 21.4501 23.411 18.4172 26.6762 15.1931C29.1432 12.7578 31.8709 10.7291 34.7872 8.87114C41.8111 4.38678 49.6413 2.32959 57.636 0.715545C59.4491 0.349642 61.3104 0.231739 63.1476 0ZM136.467 113.906C136.572 109.023 135.846 104.283 134.859 99.5543C133.327 92.1956 131.425 84.9426 128.28 78.1042C123.094 66.8303 117.574 55.7353 111.172 45.0997C108.276 40.2901 105.46 35.448 101.625 31.3214C98.5359 27.9957 95.1463 25.0075 90.6054 24.0805C84.4279 22.8202 78.4871 23.8854 72.9554 26.9102C66.1963 30.6058 61.6794 36.5579 57.7804 43.0222C55.883 46.1689 54.1942 49.4661 52.6378 52.7999C51.659 54.8978 50.8086 57.1379 50.3874 59.4106C48.9835 66.997 49.866 74.5428 51.3863 82.0072C52.8625 89.244 55.7587 96.0091 58.6188 102.762C63.5407 114.39 69.4936 125.412 77.8413 134.941C83.4853 141.385 89.8593 146.866 97.9783 149.85C104.657 152.305 111.096 151.748 117.209 147.894C121.397 145.256 124.899 141.845 128.04 138.064C131.269 134.177 134.013 129.904 135.096 124.887C135.87 121.297 136.03 117.573 136.467 113.906Z" fill="#CB333B"/>
</svg>
