<svg width="85" height="84" viewBox="0 0 85 84" fill="none" xmlns="http://www.w3.org/2000/svg">
<path d="M7.8335 46.7998V80.9998C7.8335 81.5521 8.28121 81.9998 8.8335 81.9998H76.1668C76.7191 81.9998 77.1668 81.5521 77.1668 80.9998V46.7998" stroke="#CB333B" stroke-width="2.5" stroke-linecap="round"/>
<path d="M1.9668 34.5332L11.8057 18.9982C11.989 18.7087 12.3078 18.5332 12.6505 18.5332H72.3498C72.6924 18.5332 73.0112 18.7087 73.1946 18.9982L83.0335 34.5332" stroke="#CB333B" stroke-width="2.5" stroke-linecap="round"/>
<path d="M2.68359 35.25H16.1836V39.8667C16.1836 43.5946 13.1615 46.6167 9.43359 46.6167C5.70567 46.6167 2.68359 43.5946 2.68359 39.8667V35.25Z" stroke="#CB333B" stroke-width="2.5" stroke-linecap="round"/>
<path d="M16.5503 35.25H28.9836V40.4C28.9836 43.8334 26.2003 46.6167 22.767 46.6167C19.3336 46.6167 16.5503 43.8334 16.5503 40.4V35.25Z" stroke="#CB333B" stroke-width="2.5" stroke-linecap="round"/>
<path d="M43.2168 35.25H55.6501V40.4C55.6501 43.8334 52.8668 46.6167 49.4335 46.6167C46.0001 46.6167 43.2168 43.8334 43.2168 40.4V35.25Z" stroke="#CB333B" stroke-width="2.5" stroke-linecap="round"/>
<path d="M29.3501 35.25H41.7834V40.4C41.7834 43.8334 39.0001 46.6167 35.5668 46.6167C32.1334 46.6167 29.3501 43.8334 29.3501 40.4V35.25Z" stroke="#CB333B" stroke-width="2.5" stroke-linecap="round"/>
<path d="M56.0171 35.25H68.4504V40.4C68.4504 43.8334 65.6671 46.6167 62.2338 46.6167C58.8004 46.6167 56.0171 43.8334 56.0171 40.4V35.25Z" stroke="#CB333B" stroke-width="2.5" stroke-linecap="round"/>
<path d="M68.8169 35.25H82.3169V39.8667C82.3169 43.5946 79.2948 46.6167 75.5669 46.6167C71.839 46.6167 68.8169 43.5946 68.8169 39.8667V35.25Z" stroke="#CB333B" stroke-width="2.5" stroke-linecap="round"/>
<path d="M18.6836 58.5333C18.6836 55.689 20.9893 53.3833 23.8336 53.3833C26.6779 53.3833 28.9836 55.689 28.9836 58.5333V62.8V72.2166H18.6836V58.5333Z" stroke="#CB333B" stroke-width="2.5" stroke-linecap="round"/>
<path d="M72.9004 82.0002V67.0669C72.9004 58.2303 65.7369 51.0669 56.9004 51.0669V51.0669C48.0638 51.0669 40.9004 58.2303 40.9004 67.0669V82.0002" stroke="#CB333B" stroke-width="2.5" stroke-linecap="round"/>
<path d="M56.9004 51.0669V82.0002" stroke="#CB333B" stroke-width="2.5" stroke-linecap="round"/>
<path d="M61.167 66.5337V71.3337" stroke="#CB333B" stroke-width="2.5" stroke-linecap="round"/>
<path d="M52.6338 66.5337V71.3337" stroke="#CB333B" stroke-width="2.5" stroke-linecap="round"/>
<path d="M12.1001 17.4668V11.6001L25.9668 11.6001M72.9001 17.4668V11.6001H57.9668" stroke="#CB333B" stroke-width="2.5" stroke-linecap="round" stroke-linejoin="round"/>
<path d="M57.9668 11.6V11.6C57.9668 6.29807 53.6687 2 48.3668 2H35.5668C30.2649 2 25.9668 6.29807 25.9668 11.6V11.6" stroke="#CB333B" stroke-width="2.5" stroke-linecap="round" stroke-linejoin="round"/>
</svg>
