<svg width="675" height="477" viewBox="0 0 675 477" fill="none" xmlns="http://www.w3.org/2000/svg">
<path d="M697.147 633.796C689.105 637.665 681.062 641.534 673.02 645.403C669.509 646.57 665.958 647.618 662.508 648.912C635.394 659.122 608.22 669.169 581.242 679.696C565.992 685.659 550.864 691.876 534.634 694.607C485.493 702.842 436.076 707.716 386.165 706.429C367.643 705.95 349.873 702.189 332.546 696.128C289.242 681.004 252.489 655.582 219.711 623.988C192.225 597.499 169.751 567.207 151.577 533.735C128.801 491.782 110.287 448.232 102.517 400.678C97.7166 371.343 96.6689 341.958 100.666 312.459C105.407 277.525 114.171 243.717 129.102 211.583C142.66 182.423 160.992 157.034 186.599 137.29C208.792 120.181 233.225 106.931 259.587 97.6569C276.379 91.7521 293.57 86.8204 310.823 82.4153C325.019 78.785 339.451 75.3194 353.97 73.9508C376.538 71.8396 399.074 74.9078 421.448 78.0017C446.909 81.5408 472.24 86.1856 497.749 89.2488C548.056 95.2667 597.09 105.913 643.97 125.541C678.364 139.944 710.452 157.838 737.108 184.449C752.17 199.476 766.81 214.932 777.59 233.323C791.499 257.024 800.873 282.733 807.765 309.289C815.789 340.186 818.597 371.818 819.733 403.594C820.502 425.236 820.766 446.878 816.747 468.407C813.433 486.119 806.387 502.48 800.268 519.211C795.645 531.85 789.423 543.519 782.252 554.915C764.996 582.395 740.844 602.812 715.371 621.968C709.594 626.313 703.233 629.877 697.147 633.796Z" stroke="#CB333B" stroke-width="4" stroke-miterlimit="10"/>
<path d="M681.055 646.32C673.013 650.189 664.971 654.058 656.928 657.927C653.417 659.094 649.866 660.142 646.416 661.436C619.303 671.646 592.128 681.693 565.15 692.22C549.9 698.183 534.773 704.4 518.542 707.131C469.402 715.366 419.984 720.24 370.074 718.952C351.551 718.474 333.781 714.713 316.454 708.652C273.15 693.528 236.397 668.106 203.619 636.512C176.133 610.023 153.659 579.731 135.485 546.258C112.709 504.306 94.1952 460.756 86.4255 413.202C81.6248 383.867 80.5771 354.482 84.5741 324.983C89.3155 290.049 98.0792 256.24 113.01 224.107C126.568 194.947 144.9 169.558 170.507 149.814C192.7 132.705 217.133 119.455 243.495 110.181C260.288 104.276 277.478 99.3443 294.731 94.9393C308.927 91.3089 323.36 87.8433 337.878 86.4748C360.446 84.3636 382.982 87.4318 405.357 90.5256C430.817 94.0648 456.148 98.7095 481.658 101.773C531.964 107.791 580.998 118.437 627.879 138.065C662.272 152.468 694.36 170.362 721.016 196.973C736.078 212 750.719 227.456 761.498 245.847C775.407 269.548 784.781 295.257 791.673 321.813C799.697 352.71 802.505 384.342 803.641 416.118C804.41 437.76 804.675 459.402 800.655 480.931C797.341 498.643 790.295 515.003 784.177 531.735C779.553 544.374 773.331 556.043 766.16 567.439C748.904 594.919 724.752 615.336 699.28 634.492C693.502 638.836 687.141 642.401 681.055 646.32Z" stroke="#CB333B" stroke-width="4" stroke-miterlimit="10"/>
</svg>
