<svg width="181" height="181" viewBox="0 0 181 181" fill="none" xmlns="http://www.w3.org/2000/svg">
<circle cx="90.5" cy="90.5" r="89" fill="white" stroke="#CB333B" stroke-width="3"/>
<path d="M118.581 106.967C100.943 114.394 81.0566 114.394 63.4193 106.967M116.072 118.185V118.185C117.61 117.537 118.652 116.079 118.766 114.414L122.691 56.8442C122.76 55.8335 121.455 55.3728 120.874 56.2027L104.734 79.2594C103.823 80.5618 101.829 80.3313 101.239 78.8552L91.9284 55.579C91.5932 54.7409 90.4067 54.7409 90.0715 55.579L80.761 78.8552C80.1705 80.3313 78.1772 80.5618 77.2655 79.2594L61.1259 56.2027C60.545 55.3728 59.2401 55.8335 59.309 56.8442L63.2342 114.414C63.3477 116.079 64.3895 117.537 65.9274 118.185V118.185C81.9608 124.936 100.039 124.936 116.072 118.185Z" stroke="#CB333B" stroke-width="3"/>
<path d="M68.5004 93.9021L67.0488 78.6602" stroke="#CB333B" stroke-width="3" stroke-linecap="round"/>
</svg>
