<svg width="86" height="85" viewBox="0 0 86 85" fill="none" xmlns="http://www.w3.org/2000/svg">
<path d="M34.9854 27.1924C34.9854 27.1924 39.7696 25.407 42.9533 25.4619C46.137 25.5167 47.7703 26.6832 50.8568 27.4658C53.9433 28.2483 55.5766 29.4148 58.7603 29.4696C60.87 29.506 63.6823 28.7343 65.3398 28.2095C66.0117 27.9967 66.7151 28.5015 66.7029 29.2062L66.3701 48.5308C66.363 48.9418 66.1059 49.3058 65.7166 49.4379C64.3061 49.9163 60.8649 50.9853 58.3905 50.9427C55.2068 50.8879 53.5735 49.7214 50.487 48.9388C47.4005 48.1562 45.7672 46.9897 42.5835 46.9349C39.3997 46.8801 34.6156 48.6655 34.6156 48.6655L34.9854 27.1924Z" stroke="#CB333B" stroke-width="2"/>
<path d="M39.3687 42.1422L39.3438 31.5947" stroke="#CB333B" stroke-width="2" stroke-linecap="round"/>
<rect x="29.4492" y="23.3613" width="5.6025" height="50.519" rx="2.80125" transform="rotate(0.986664 29.4492 23.3613)" stroke="#CB333B" stroke-width="2"/>
</svg>
