<svg width="333" height="333" viewBox="0 0 333 333" fill="none" xmlns="http://www.w3.org/2000/svg">
<path d="M248.742 114.981L270.738 92.9841C272.836 90.8866 272.836 87.4859 270.738 85.3884L250.555 65.2056C248.458 63.1081 245.057 63.1081 242.96 65.2056L220.963 87.2021M248.742 114.981L242.997 166.681C242.862 167.893 242.319 169.023 241.457 169.886L228.9 182.443M248.742 114.981L220.963 87.2021M220.963 87.2021L169.263 92.9466C168.051 93.0812 166.92 93.6245 166.058 94.4868L153.501 107.044M153.501 107.044L52.1375 208.407C50.04 210.505 50.04 213.906 52.1375 216.003L119.941 283.806C122.038 285.904 125.439 285.904 127.536 283.806L228.9 182.443M153.501 107.044C153.501 107.044 172.3 109.97 180.287 117.957C188.275 125.944 191.2 144.743 191.2 144.743V144.743C191.2 144.743 194.126 163.542 202.113 171.53C210.101 179.517 228.9 182.443 228.9 182.443" stroke="white" stroke-width="6"/>
<path d="M87.625 210.047L159.055 138.616" stroke="white" stroke-width="6" stroke-linecap="round"/>
</svg>
