<svg width="63" height="62" viewBox="0 0 63 62" fill="none" xmlns="http://www.w3.org/2000/svg">
<path d="M33.2609 8.91079C32.8642 7.6964 31.1369 7.6964 30.7402 8.91079L26.0501 23.2684C25.8727 23.8115 25.3639 24.1792 24.7898 24.1792H9.6121C8.32835 24.1792 7.79459 25.8132 8.83317 26.5637L21.1122 35.4372C21.5766 35.7729 21.771 36.3678 21.5936 36.9109L16.9034 51.2686C16.5067 52.483 17.9041 53.4928 18.9427 52.7423L31.2216 43.8688C31.6861 43.5331 32.315 43.5331 32.7795 43.8688L45.0585 52.7423C46.0971 53.4928 47.4945 52.483 47.0978 51.2686L42.4076 36.9109C42.2302 36.3678 42.4245 35.7729 42.889 35.4372L55.168 26.5637C56.2066 25.8132 55.6728 24.1792 54.3891 24.1792H39.2114C38.6373 24.1792 38.1285 23.8115 37.9511 23.2684L33.2609 8.91079Z" stroke="#CB333B" stroke-width="2"/>
</svg>
