<svg width="304" height="333" viewBox="0 0 304 333" fill="none" xmlns="http://www.w3.org/2000/svg">
<path d="M101.922 84.5654C101.922 84.5654 113.663 96.3066 166.498 96.3066C219.334 96.3066 231.075 84.5654 231.075 84.5654M101.922 84.5654C101.922 84.5654 116.598 72.8242 166.498 72.8242C172.941 72.8242 178.797 73.02 184.11 73.3609M101.922 84.5654L106.191 131.53M231.075 84.5654L226.805 131.53M231.075 84.5654C231.075 84.5654 225.049 79.7449 207.593 76.2814M106.191 131.53L119.358 276.358C119.471 277.61 120.017 278.774 121.033 279.514C125.163 282.518 138.312 290.036 166.498 290.036C194.685 290.036 207.834 282.518 211.963 279.514C212.98 278.774 213.525 277.61 213.639 276.358L226.805 131.53M106.191 131.53C106.191 131.53 123.708 119.789 136.345 119.789C158.874 119.789 174.123 143.271 196.652 143.271C209.289 143.271 226.805 131.53 226.805 131.53" stroke="white" stroke-width="6"/>
<path d="M125.404 108.043L132.075 181.425" stroke="white" stroke-width="6" stroke-linecap="round"/>
<rect x="185.641" y="37.5977" width="23.4824" height="223.083" rx="11.7412" transform="rotate(3.41056 185.641 37.5977)" stroke="white" stroke-width="6"/>
</svg>
