<svg width="62" height="63" viewBox="0 0 62 63" fill="none" xmlns="http://www.w3.org/2000/svg">
<path d="M11.511 31.3855C11.426 30.6659 12.1172 30.0733 12.8245 30.2309C15.4026 30.8054 21.3399 31.8333 30.8188 31.8333C40.2976 31.8333 46.235 30.8054 48.813 30.2309C49.5204 30.0733 50.2115 30.6659 50.1265 31.3855L47.4505 54.0396C47.4093 54.388 47.1897 54.6857 46.8574 54.798C45.3749 55.2986 40.6212 56.5809 30.8188 56.5809C21.0163 56.5809 16.2627 55.2986 14.7802 54.798C14.4478 54.6857 14.2282 54.388 14.1871 54.0396L11.511 31.3855Z" stroke="#CB333B" stroke-width="2"/>
<path d="M23.1517 36.6172C21.0119 36.3355 19.4288 36.0306 18.3906 35.7992C17.6833 35.6416 16.9924 36.2342 17.0775 36.9539L18.3581 47.7956" stroke="#CB333B" stroke-width="2" stroke-linecap="round"/>
<path d="M30.5234 10.6473C30.5452 9.96184 31.2166 9.50239 31.8394 9.78929C33.8938 10.7356 38.1466 13.045 42.7051 17.6035C48.1465 23.0449 48.9325 27.5847 49.026 29.2186C49.0487 29.6151 48.7862 29.946 48.4028 30.0497C46.5366 30.5544 40.5198 31.94 30.7067 31.94C21.0655 31.94 15.0682 30.4213 13.0839 29.8246C12.6485 29.6937 12.3869 29.2734 12.4804 28.8285C12.7076 27.7474 13.3066 25.7325 14.7804 24.2586C18.7643 20.2748 25.9001 24.9179 28.9619 20.0145C30.1411 18.126 30.445 13.1057 30.5234 10.6473Z" stroke="#CB333B" stroke-width="2"/>
</svg>
