<svg width="62" height="62" viewBox="0 0 62 62" fill="none" xmlns="http://www.w3.org/2000/svg">
<path d="M31.244 14.0362C31.244 14.0362 36.2937 14.7953 39.0513 16.3874C41.8088 17.9795 42.6714 19.7917 44.991 21.9731C47.3107 24.1545 48.1732 25.9668 50.9308 27.5588C52.7581 28.6138 55.5917 29.303 57.2958 29.648C57.9866 29.7878 58.3569 30.5703 58.0044 31.1808L48.3407 47.9188C48.1352 48.2748 47.7338 48.4684 47.3292 48.3951C45.8637 48.1294 42.3359 47.3952 40.1927 46.1578C37.4351 44.5657 36.5726 42.7534 34.2529 40.5721C31.9333 38.3907 31.0707 36.5784 28.3131 34.9863C25.5556 33.3942 20.5059 32.6352 20.5059 32.6352L31.244 14.0362Z" stroke="#CB333B" stroke-width="2"/>
<path d="M27.8261 29.2359L32.9199 20" stroke="#CB333B" stroke-width="2" stroke-linecap="round"/>
<rect x="28.2598" y="8" width="5.6025" height="50.519" rx="2.80125" transform="rotate(30 28.2598 8)" stroke="#CB333B" stroke-width="2"/>
</svg>
