<svg width="62" height="63" viewBox="0 0 62 63" fill="none" xmlns="http://www.w3.org/2000/svg">
<path d="M30.756 14.5362C30.756 14.5362 25.7063 15.2953 22.9487 16.8874C20.1912 18.4795 19.3286 20.2917 17.009 22.4731C14.6893 24.6545 13.8268 26.4668 11.0692 28.0588C9.24192 29.1138 6.40826 29.803 4.70424 30.148C4.0134 30.2878 3.64315 31.0703 3.99558 31.6808L13.6593 48.4188C13.8648 48.7748 14.2662 48.9684 14.6708 48.8951C16.1363 48.6294 19.6641 47.8952 21.8073 46.6578C24.5649 45.0657 25.4274 43.2534 27.7471 41.0721C30.0667 38.8907 30.9293 37.0784 33.6869 35.4863C36.4444 33.8942 41.4941 33.1352 41.4941 33.1352L30.756 14.5362Z" stroke="#CB333B" stroke-width="2"/>
<path d="M34.1739 29.7359L29.0801 20.5" stroke="#CB333B" stroke-width="2" stroke-linecap="round"/>
<rect width="5.6025" height="50.519" rx="2.80125" transform="matrix(-0.866025 0.5 0.5 0.866025 33.7402 8.5)" stroke="#CB333B" stroke-width="2"/>
</svg>
