<svg width="62" height="63" viewBox="0 0 62 63" fill="none" xmlns="http://www.w3.org/2000/svg">
<path d="M41.5061 18C37.364 18 34.0061 21.3579 34.0061 25.5C33.8395 33.3333 37.0061 50 51.0061 54C44.0062 45 49.0061 32 49.0061 25.5C49.0061 21.3579 45.6483 18 41.5061 18Z" stroke="#CB333B" stroke-width="2" stroke-linejoin="round"/>
<path d="M41 18C41 13 44 9.5 46.5 9.5M38 24.5C38 22.8431 39.3431 21.5 41 21.5" stroke="#CB333B" stroke-width="2" stroke-linecap="round"/>
<path d="M18.5061 18C14.364 18 11.0061 21.3579 11.0061 25.5C10.8395 33.3333 14.0061 50 28.0061 54C21.0062 45 26.0061 32 26.0061 25.5C26.0061 21.3579 22.6483 18 18.5061 18Z" stroke="#CB333B" stroke-width="2" stroke-linejoin="round"/>
<path d="M18 18C18 13 21 9.5 23.5 9.5M15 24.5C15 22.8431 16.3431 21.5 18 21.5" stroke="#CB333B" stroke-width="2" stroke-linecap="round"/>
</svg>
