<svg width="270" height="333" viewBox="0 0 270 333" fill="none" xmlns="http://www.w3.org/2000/svg">
<path d="M52.9365 252.435C29.2061 228.704 29.2061 190.229 52.9365 166.499L138.872 80.5634C162.603 56.833 201.077 56.833 224.808 80.5634V80.5634L52.9365 252.435V252.435Z" stroke="white" stroke-width="6"/>
<path d="M118.461 129.978L75.4934 172.946C62.6601 185.779 56.767 202.925 57.8141 219.718" stroke="white" stroke-width="6" stroke-linecap="round"/>
<path d="M51.8611 256.735L53.9825 258.856L51.8611 256.735ZM81.9369 261.033L84.0582 263.154L89.1795 258.033L81.9369 258.033L81.9369 261.033ZM62.2335 261.033V258.033V261.033ZM57.9367 250.66L55.8154 248.538L57.9367 250.66ZM77.8569 230.739L79.9782 232.861L77.8569 230.739ZM97.7771 210.819L95.6558 208.698L97.7771 210.819ZM108.15 215.116L105.15 215.116L105.15 215.116L108.15 215.116ZM108.15 234.819L105.15 234.819L105.15 242.062L110.272 236.941L108.15 234.819ZM142.523 200.447L144.644 202.568L149.766 197.447L142.523 197.447L142.523 200.447ZM122.821 200.447L122.821 203.447L122.821 203.447L122.821 200.447ZM138.444 170.154L136.323 168.032L138.444 170.154ZM158.364 150.233L160.486 152.355L158.364 150.233ZM168.738 154.53L165.738 154.53L165.738 154.53L168.738 154.53ZM168.738 174.232L165.738 174.232L165.738 181.475L170.859 176.354L168.738 174.232ZM202.679 140.291L204.8 142.412L209.921 137.291L202.679 137.291L202.679 140.291ZM182.975 140.291L182.975 137.291L182.975 137.291L182.975 140.291ZM228.892 94.3742L231.892 94.3742L231.892 94.3742L228.892 94.3742ZM228.892 114.078L225.892 114.078L225.892 121.32L231.014 116.199L228.892 114.078ZM240.919 102.051L238.798 99.9292L240.919 102.051ZM223.732 84.8634L221.611 82.7421L223.732 84.8634ZM53.9825 271.8C50.4079 268.226 50.4079 262.43 53.9825 258.856L49.7398 254.613C43.8222 260.531 43.8221 270.125 49.7398 276.043L53.9825 271.8ZM66.9269 271.8C63.3524 275.375 57.557 275.375 53.9825 271.8L49.7398 276.043C55.6575 281.961 65.2519 281.961 71.1695 276.043L66.9269 271.8ZM79.8156 258.912L66.9269 271.8L71.1695 276.043L84.0582 263.154L79.8156 258.912ZM81.9369 258.033L62.2335 258.033V264.033H81.9369L81.9369 258.033ZM62.2335 258.033C59.4925 258.033 58.1199 254.719 60.058 252.781L55.8154 248.538C50.0975 254.256 54.1471 264.033 62.2335 264.033L62.2335 258.033ZM60.058 252.781L79.9782 232.861L75.7356 228.618L55.8154 248.538L60.058 252.781ZM79.9782 232.861L99.8984 212.941L95.6558 208.698L75.7356 228.618L79.9782 232.861ZM99.8984 212.941C101.837 211.002 105.15 212.375 105.15 215.116L111.15 215.116C111.15 207.03 101.374 202.98 95.6558 208.698L99.8984 212.941ZM105.15 215.116V234.819L111.15 234.819V215.116L105.15 215.116ZM140.402 198.326L106.029 232.698L110.272 236.941L144.644 202.568L140.402 198.326ZM142.523 197.447L122.821 197.447L122.821 203.447L142.523 203.447L142.523 197.447ZM122.821 197.447C120.08 197.447 118.707 194.133 120.645 192.195L116.403 187.952C110.685 193.67 114.734 203.447 122.821 203.447L122.821 197.447ZM120.645 192.195L140.566 172.275L136.323 168.032L116.403 187.952L120.645 192.195ZM140.566 172.275L160.486 152.355L156.243 148.112L136.323 168.032L140.566 172.275ZM160.486 152.355C162.424 150.416 165.738 151.789 165.738 154.53L171.738 154.53C171.738 146.444 161.961 142.394 156.243 148.112L160.486 152.355ZM165.738 154.53L165.738 174.232L171.738 174.232L171.738 154.53L165.738 154.53ZM200.557 138.17L166.616 172.111L170.859 176.354L204.8 142.412L200.557 138.17ZM182.975 143.291L202.679 143.291L202.679 137.291L182.975 137.291L182.975 143.291ZM176.557 127.796C170.839 133.514 174.889 143.291 182.975 143.291L182.975 137.291C180.234 137.291 178.862 133.977 180.8 132.039L176.557 127.796ZM196.477 107.876L176.557 127.796L180.8 132.039L200.72 112.119L196.477 107.876ZM216.398 87.9561L196.477 107.876L200.72 112.119L220.64 92.1987L216.398 87.9561ZM231.892 94.3742C231.892 86.2878 222.116 82.2382 216.398 87.9561L220.64 92.1987C222.578 90.2606 225.892 91.6333 225.892 94.3742L231.892 94.3742ZM231.892 114.078V94.3742L225.892 94.3742V114.078L231.892 114.078ZM238.798 99.9292L226.771 111.956L231.014 116.199L243.041 104.172L238.798 99.9292ZM238.798 86.9848C242.373 90.5593 242.373 96.3547 238.798 99.9292L243.041 104.172C248.958 98.2542 248.958 88.6598 243.041 82.7421L238.798 86.9848ZM225.854 86.9847C229.428 83.4102 235.224 83.4102 238.798 86.9848L243.041 82.7421C237.123 76.8245 227.529 76.8244 221.611 82.7421L225.854 86.9847ZM53.9825 258.856L225.854 86.9847L221.611 82.7421L49.7398 254.613L53.9825 258.856Z" fill="white"/>
<path d="M69.0469 273.92L66.9256 271.799L64.8042 273.92L66.9256 276.041L69.0469 273.92ZM81.9332 261.034L81.9332 258.034L80.6906 258.034L79.8119 258.912L81.9332 261.034ZM86.234 291.107L88.3553 288.986L86.234 291.107ZM258.105 119.236L260.226 117.115L258.105 119.236ZM240.918 102.049L243.039 99.9275L240.918 97.8061L238.797 99.9275L240.918 102.049ZM228.891 114.076L226.769 111.955L225.891 112.834L225.891 114.076L228.891 114.076ZM228.891 134.215L231.891 134.215L228.891 134.215ZM222.814 140.292L222.814 143.292L222.814 143.292V140.292ZM202.675 140.292L202.675 137.292L201.432 137.292L200.554 138.17L202.675 140.292ZM168.736 174.231L166.615 172.109L165.736 172.988L165.736 174.231L168.736 174.231ZM168.736 194.371L171.736 194.371L171.736 194.371L168.736 194.371ZM162.66 200.448L162.66 197.448L162.66 197.448L162.66 200.448ZM142.519 200.448L142.519 197.448L141.277 197.448L140.398 198.326L142.519 200.448ZM108.149 234.818L106.027 232.697L105.149 233.575L105.149 234.818L108.149 234.818ZM108.149 254.957L111.149 254.957L108.149 254.957ZM102.072 261.034V264.034V261.034ZM71.1682 276.041L84.0545 263.155L79.8119 258.912L66.9256 271.799L71.1682 276.041ZM88.3553 288.986L71.1682 271.799L66.9256 276.041L84.1127 293.228L88.3553 288.986ZM92.7062 288.986C91.5048 290.187 89.5568 290.187 88.3553 288.986L84.1127 293.228C87.6573 296.773 93.4043 296.773 96.9489 293.228L92.7062 288.986ZM255.984 125.708L92.7062 288.986L96.9489 293.228L260.226 129.951L255.984 125.708ZM255.984 121.357C257.185 122.559 257.185 124.507 255.984 125.708L260.226 129.951C263.771 126.406 263.771 120.659 260.226 117.115L255.984 121.357ZM238.797 104.17L255.984 121.357L260.226 117.115L243.039 99.9275L238.797 104.17ZM231.012 116.197L243.039 104.17L238.797 99.9275L226.769 111.955L231.012 116.197ZM231.891 134.215L231.891 114.076L225.891 114.076L225.891 134.215L231.891 134.215ZM222.814 143.292C227.827 143.292 231.891 139.228 231.891 134.215L225.891 134.215C225.891 135.914 224.513 137.292 222.814 137.292L222.814 143.292ZM202.675 143.292L222.814 143.292L222.814 137.292L202.675 137.292L202.675 143.292ZM170.857 176.352L204.796 142.413L200.554 138.17L166.615 172.109L170.857 176.352ZM165.736 174.231L165.736 194.371L171.736 194.371L171.736 174.231L165.736 174.231ZM165.736 194.371C165.736 196.07 164.359 197.448 162.66 197.448L162.66 203.448C167.672 203.448 171.736 199.384 171.736 194.371L165.736 194.371ZM162.66 197.448L142.519 197.448L142.519 203.448L162.66 203.448L162.66 197.448ZM110.27 236.939L144.641 202.569L140.398 198.326L106.027 232.697L110.27 236.939ZM105.149 234.818L105.149 254.957H111.149L111.149 234.818L105.149 234.818ZM105.149 254.957C105.149 256.656 103.771 258.034 102.072 258.034L102.072 264.034C107.085 264.034 111.149 259.97 111.149 254.957H105.149ZM102.072 258.034L81.9332 258.034L81.9332 264.034L102.072 264.034L102.072 258.034Z" fill="white"/>
</svg>
