<svg width="46" height="46" viewBox="0 0 46 46" fill="none" xmlns="http://www.w3.org/2000/svg">
<path fill-rule="evenodd" clip-rule="evenodd" d="M32.7101 19.5289C35.2886 20.9398 38.5303 20.021 39.9812 17.454C41.4444 14.8651 40.5319 11.5801 37.943 10.1169C37.8649 10.0736 37.7867 10.0308 37.7076 9.98943C37.6001 9.9332 37.4634 9.86412 37.2994 9.78577C36.9719 9.62938 36.5313 9.43412 35.9912 9.22972C34.9177 8.82346 33.4101 8.36551 31.5881 8.12002C27.884 7.62095 22.8835 8.01472 17.8541 11.402C12.8247 14.7893 10.5801 19.275 9.6502 22.895C9.19279 24.6757 9.05044 26.2449 9.02337 27.3923C9.00975 27.9696 9.02506 28.4514 9.04689 28.8136C9.05783 28.995 9.07048 29.1476 9.08215 29.2685C9.08466 29.2944 9.09127 29.4496 9.11178 29.5344C9.49453 32.4835 12.1955 34.564 15.1446 34.1812C18.0687 33.8017 20.1387 31.1432 19.8006 28.2234C19.7997 28.2127 19.7982 28.1932 19.7966 28.1656C19.791 28.0729 19.7837 27.8935 19.7896 27.6463C19.8014 27.1446 19.866 26.4104 20.0807 25.5744C20.4952 23.9611 21.4558 21.9601 23.8699 20.3343C26.284 18.7084 28.4993 18.5703 30.1501 18.7928C31.0055 18.908 31.7101 19.1241 32.1795 19.3018C32.4108 19.3893 32.5743 19.4634 32.6581 19.5035C32.683 19.5154 32.7004 19.524 32.7101 19.5289Z" stroke="#CB333B" stroke-width="2" stroke-linecap="round"/>
<path d="M13.8649 34.5793C13.8705 37.0574 11.866 39.0709 9.38786 39.0765" stroke="#CB333B" stroke-width="2" stroke-linecap="round"/>
<path d="M15.2724 35.0687C16.7421 38.3639 20.6049 39.8437 23.9 38.374" stroke="#CB333B" stroke-width="2" stroke-linecap="round"/>
<path d="M13.3282 44.0899C16.1974 41.9023 16.75 37.8029 14.5624 34.9337" stroke="#CB333B" stroke-width="2" stroke-linecap="round"/>
<path d="M37.706 15.5303C37.8959 13.5569 36.45 11.8031 34.4766 11.6133" stroke="#CB333B" stroke-width="2" stroke-linecap="round"/>
</svg>
