<svg width="90" height="90" viewBox="0 0 90 90" fill="none" xmlns="http://www.w3.org/2000/svg">
<path d="M72.5806 60.9677C54.9433 68.394 35.0566 68.394 17.4193 60.9677M70.0725 72.1851V72.1851C71.6104 71.5375 72.6522 70.0788 72.7657 68.414L76.6909 10.8445C76.7598 9.83376 75.4549 9.37306 74.874 10.203L58.7343 33.2596C57.8227 34.562 55.8293 34.3315 55.2389 32.8555L45.9284 9.57925C45.5932 8.7411 44.4067 8.74111 44.0715 9.57925L34.761 32.8555C34.1705 34.3315 32.1772 34.562 31.2655 33.2596L15.1259 10.203C14.545 9.37305 13.2401 9.83375 13.309 10.8445L17.2342 68.414C17.3477 70.0788 18.3895 71.5375 19.9274 72.1851V72.1851C35.9608 78.936 54.0391 78.936 70.0725 72.1851Z" stroke="#CB333B" stroke-width="2"/>
<path d="M22.5004 47.9033L21.0488 32.6614" stroke="#CB333B" stroke-width="2" stroke-linecap="round"/>
</svg>
