<svg width="62" height="63" viewBox="0 0 62 63" fill="none" xmlns="http://www.w3.org/2000/svg">
<path d="M49 34.0985C49 43.5828 43.0569 52.3431 31.5 48.4148C19.9431 52.3431 14 43.5828 14 34.0985C14 24.6142 19.835 15.0692 31.5 19.7105C43.165 15.0692 49 24.6142 49 34.0985Z" stroke="#CB333B" stroke-width="2"/>
<path d="M32.3073 14.4516C32.8328 14.2819 33.1213 13.7183 32.9516 13.1927C32.7819 12.6672 32.2183 12.3787 31.6927 12.5484L32.3073 14.4516ZM31.5806 18.8297C31.0533 18.2459 30.8715 17.2651 31.0897 16.2628C31.3161 15.2231 31.8668 14.5938 32.3073 14.4516L31.6927 12.5484C30.2748 13.0062 29.4318 14.4769 29.1355 15.8372C28.8311 17.2349 28.9978 18.9541 30.0965 20.1703L31.5806 18.8297Z" fill="#CB333B"/>
<path d="M28 44.5C23.0294 44.5 19 40.4706 19 35.5" stroke="#CB333B" stroke-width="2" stroke-linecap="round"/>
</svg>
