<svg width="1622" height="102" viewBox="0 0 1622 102" fill="none" xmlns="http://www.w3.org/2000/svg">
<path d="M38.9671 33.9669C45.5896 27.3444 56.3268 27.3444 62.9493 33.9669C68.9293 39.9469 69.5893 49.4187 64.4965 56.1703L52.2418 72.4162C51.5985 73.269 50.3179 73.269 49.6746 72.4162L37.4199 56.1703C32.3271 49.4187 32.9871 39.9469 38.9671 33.9669Z" stroke="#CB333B" stroke-width="2"/>
<circle cx="51" cy="45" r="7" stroke="#CB333B" stroke-width="2"/>
<rect x="116.266" y="82.8318" width="30" height="60.196" rx="15" transform="rotate(-135 116.266 82.8318)" stroke="#CB333B" stroke-width="2"/>
<path d="M144.025 55.0728C138.167 60.9307 128.669 60.9307 122.811 55.0728V55.0728C116.954 49.215 116.954 39.7175 122.811 33.8596L127.105 29.5662C132.963 23.7084 142.46 23.7084 148.318 29.5663V29.5663C154.176 35.4241 154.176 44.9216 148.318 50.7795L144.025 55.0728Z" stroke="#CB333B" stroke-width="2"/>
<path d="M109.109 67.2219C105.734 63.8469 105.734 58.375 109.109 55" stroke="#CB333B" stroke-width="2" stroke-linecap="round"/>
<path d="M222 62C209.85 67.1158 196.15 67.1158 184 62M220.272 69.7275V69.7275C221.332 69.2814 222.049 68.2765 222.128 67.1296L224.755 28.5864C224.824 27.5757 223.52 27.115 222.939 27.9449L213.121 41.9693C212.21 43.2717 210.216 43.0412 209.626 41.5652L203.928 27.3212C203.593 26.483 202.407 26.483 202.072 27.3212L196.374 41.5652C195.784 43.0412 193.79 43.2717 192.879 41.9693L183.061 27.9449C182.48 27.115 181.176 27.5757 181.245 28.5864L183.872 67.1296C183.951 68.2765 184.668 69.2814 185.728 69.7275V69.7275C196.773 74.3781 209.227 74.3781 220.272 69.7275Z" stroke="#CB333B" stroke-width="2"/>
<path d="M187.5 53L186.5 42.5" stroke="#CB333B" stroke-width="2" stroke-linecap="round"/>
<path d="M300.001 41.0492L299.903 40.0541L300.001 41.0492ZM300.001 60.9508L299.903 61.9459L300.001 60.9508ZM257.999 60.9508L258.097 61.9459L257.999 60.9508ZM257.999 41.0492L257.9 42.0444L257.999 41.0492ZM258 30H300V28H258V30ZM258 40V30H256V40H258ZM268 51C268 45.295 263.658 40.6054 258.097 40.0541L257.9 42.0444C262.447 42.4952 266 46.3334 266 51H268ZM258.097 61.9459C263.658 61.3946 268 56.705 268 51H266C266 55.6666 262.447 59.5048 257.9 59.9556L258.097 61.9459ZM258 72V62H256V72H258ZM300 72H258V74H300V72ZM300 62V72H302V62H300ZM290 51C290 56.705 294.342 61.3946 299.903 61.9459L300.1 59.9556C295.553 59.5048 292 55.6666 292 51H290ZM299.903 40.0541C294.342 40.6054 290 45.295 290 51H292C292 46.3334 295.553 42.4952 300.1 42.0444L299.903 40.0541ZM300 30V40H302V30H300ZM300.1 42.0444C301.098 41.9454 302 41.1271 302 40H300C300 40.0009 300 40.0001 300 40.0002C300 40.0012 299.997 40.0068 299.989 40.0149C299.972 40.0329 299.941 40.0503 299.903 40.0541L300.1 42.0444ZM302 62C302 60.8729 301.098 60.0546 300.1 59.9556L299.903 61.9459C299.941 61.9497 299.972 61.9671 299.989 61.9851C299.997 61.9932 300 61.9988 300 61.9998C300 61.9999 300 61.9991 300 62H302ZM300 74C301.105 74 302 73.1046 302 72H300V74ZM257.9 59.9556C256.902 60.0546 256 60.8729 256 62H258C258 61.9991 258 61.9999 258 61.9998C258 61.9988 258.003 61.9932 258.011 61.9851C258.028 61.9671 258.059 61.9497 258.097 61.9459L257.9 59.9556ZM256 40C256 41.1271 256.902 41.9454 257.9 42.0444L258.097 40.0541C258.059 40.0503 258.028 40.0329 258.011 40.0149C258.003 40.0068 258 40.0012 258 40.0002C258 40.0001 258 40.0009 258 40H256ZM300 30H302C302 28.8954 301.105 28 300 28V30ZM256 72C256 73.1046 256.895 74 258 74V72H258H256ZM258 28C256.895 28 256 28.8954 256 30H258V30V28Z" fill="#CB333B"/>
<circle cx="274" cy="46" r="3" stroke="#CB333B" stroke-width="2"/>
<circle cx="284" cy="56" r="3" stroke="#CB333B" stroke-width="2"/>
<path d="M272 57L285 44" stroke="#CB333B" stroke-width="2" stroke-linecap="round"/>
<path fill-rule="evenodd" clip-rule="evenodd" d="M368.09 46.3221C371.565 48.2238 375.934 46.9853 377.89 43.5254C379.862 40.036 378.632 35.6085 375.143 33.6363C375.037 33.578 374.932 33.5202 374.825 33.4645C374.68 33.3887 374.496 33.2956 374.275 33.19C373.834 32.9792 373.24 32.716 372.512 32.4406C371.065 31.893 369.033 31.2758 366.577 30.9449C361.585 30.2722 354.845 30.8029 348.066 35.3684C341.287 39.9339 338.262 45.9798 337.009 50.859C336.392 53.259 336.2 55.374 336.164 56.9206C336.146 57.6987 336.166 58.348 336.196 58.8362C336.21 59.0808 336.227 59.2865 336.243 59.4493C336.247 59.4843 336.255 59.6934 336.283 59.8078C336.799 63.7826 340.439 66.5867 344.414 66.0708C348.355 65.5593 351.146 61.9761 350.69 58.0408C350.689 58.0263 350.687 58.0001 350.684 57.9628C350.677 57.8379 350.667 57.5961 350.675 57.2629C350.691 56.5867 350.778 55.5971 351.067 54.4703C351.626 52.2958 352.921 49.599 356.175 47.4075C359.428 45.2161 362.414 45.0301 364.639 45.3299C365.792 45.4852 366.742 45.7765 367.374 46.0159C367.686 46.1339 367.906 46.2338 368.019 46.2878C368.053 46.3038 368.077 46.3155 368.09 46.3221Z" stroke="#CB333B" stroke-width="2" stroke-linecap="round"/>
<path d="M342.688 66.6091C342.695 69.9492 339.993 72.6631 336.653 72.6706" stroke="#CB333B" stroke-width="2" stroke-linecap="round"/>
<path d="M344.587 67.2649C346.568 71.7062 351.774 73.7008 356.216 71.7198" stroke="#CB333B" stroke-width="2" stroke-linecap="round"/>
<path d="M341.966 79.4252C345.834 76.4767 346.578 70.9514 343.63 67.0841" stroke="#CB333B" stroke-width="2" stroke-linecap="round"/>
<path d="M374.821 40.9345C375.077 38.2746 373.129 35.9109 370.469 35.655" stroke="#CB333B" stroke-width="2" stroke-linecap="round"/>
<path d="M431.244 34.0358C431.244 34.0358 436.294 34.7948 439.051 36.3869C441.809 37.979 442.671 39.7913 444.991 41.9726C447.311 44.154 448.173 45.9663 450.931 47.5584C452.758 48.6133 455.592 49.3025 457.296 49.6475C457.987 49.7873 458.357 50.5698 458.004 51.1803L448.341 67.9183C448.135 68.2743 447.734 68.468 447.329 68.3946C445.864 68.1289 442.336 67.3947 440.193 66.1573C437.435 64.5652 436.573 62.753 434.253 60.5716C431.933 58.3902 431.071 56.5779 428.313 54.9859C425.556 53.3938 420.506 52.6347 420.506 52.6347L431.244 34.0358Z" stroke="#CB333B" stroke-width="2"/>
<path d="M427.826 49.2359L432.92 40" stroke="#CB333B" stroke-width="2" stroke-linecap="round"/>
<rect x="428.26" y="28" width="5.6025" height="50.519" rx="2.80125" transform="rotate(30 428.26 28)" stroke="#CB333B" stroke-width="2"/>
<path d="M487.511 50.8855C487.426 50.1659 488.117 49.5733 488.824 49.7309C491.403 50.3054 497.34 51.3333 506.819 51.3333C516.298 51.3333 522.235 50.3054 524.813 49.7309C525.52 49.5733 526.211 50.1659 526.126 50.8855L523.45 73.5396C523.409 73.888 523.19 74.1857 522.857 74.298C521.375 74.7986 516.621 76.0809 506.819 76.0809C497.016 76.0809 492.263 74.7986 490.78 74.298C490.448 74.1857 490.228 73.888 490.187 73.5396L487.511 50.8855Z" stroke="#CB333B" stroke-width="2"/>
<path d="M499.152 56.1169C497.012 55.8352 495.429 55.5303 494.391 55.299C493.683 55.1413 492.992 55.734 493.077 56.4536L494.358 67.2954" stroke="#CB333B" stroke-width="2" stroke-linecap="round"/>
<path d="M506.523 30.1473C506.545 29.4618 507.217 29.0024 507.839 29.2893C509.894 30.2356 514.147 32.545 518.705 37.1035C524.146 42.5449 524.933 47.0847 525.026 48.7186C525.049 49.1151 524.786 49.446 524.403 49.5497C522.537 50.0544 516.52 51.44 506.707 51.44C497.065 51.44 491.068 49.9213 489.084 49.3246C488.649 49.1937 488.387 48.7734 488.48 48.3285C488.708 47.2474 489.307 45.2325 490.78 43.7586C494.764 39.7748 501.9 44.4179 504.962 39.5145C506.141 37.626 506.445 32.6057 506.523 30.1473Z" stroke="#CB333B" stroke-width="2"/>
<path d="M561 45.9828C561 45.3257 561.621 44.8345 562.265 44.9664C564.961 45.5189 571.947 46.6812 583 46.6812C594.053 46.6812 601.039 45.5189 603.735 44.9664C604.379 44.8345 605 45.3257 605 45.9828V49.6812C605 60.7268 596.046 69.6812 585 69.6812H581C569.954 69.6812 561 60.7268 561 49.6812V45.9828Z" stroke="#CB333B" stroke-width="2"/>
<path d="M563.975 50.0278C563.975 50.0278 571.534 51.7909 586.027 51.3346" stroke="#CB333B" stroke-width="2" stroke-linecap="round"/>
<path d="M579 71.6813H578V71.9173L578.106 72.1285L579 71.6813ZM579 69.5825L579.099 68.5874L578 68.4783V69.5825H579ZM587 71.6813L587.894 72.1285L588 71.9173V71.6813H587ZM587 69.5825H588V68.4783L586.901 68.5874L587 69.5825ZM580 71.6813V69.5825H578V71.6813H580ZM583 71.6813C581.335 71.6813 580.486 71.442 580.094 71.2675C579.901 71.1819 579.824 71.1144 579.811 71.1027C579.804 71.0965 579.812 71.1025 579.828 71.1242C579.836 71.135 579.846 71.1493 579.858 71.1676C579.863 71.1767 579.869 71.1868 579.875 71.1979C579.878 71.2034 579.882 71.2092 579.885 71.2152C579.886 71.2182 579.888 71.2213 579.89 71.2245C579.89 71.226 579.891 71.2276 579.892 71.2292C579.892 71.23 579.893 71.2312 579.893 71.2316C579.894 71.2328 579.894 71.2341 579 71.6813C578.106 72.1285 578.106 72.1297 578.107 72.1309C578.107 72.1314 578.108 72.1326 578.108 72.1334C578.109 72.1351 578.11 72.1368 578.111 72.1384C578.112 72.1418 578.114 72.1453 578.116 72.1488C578.12 72.1557 578.124 72.163 578.128 72.1704C578.136 72.1852 578.145 72.2009 578.155 72.2174C578.176 72.2503 578.2 72.2861 578.228 72.3242C578.286 72.4006 578.36 72.4848 578.455 72.5723C578.645 72.7481 578.911 72.9307 579.281 73.0951C580.014 73.4206 581.165 73.6813 583 73.6813V71.6813ZM587 71.6813C586.106 71.2341 586.106 71.2328 586.107 71.2316C586.107 71.2312 586.108 71.23 586.108 71.2292C586.109 71.2276 586.11 71.226 586.11 71.2245C586.112 71.2213 586.114 71.2182 586.115 71.2152C586.118 71.2092 586.122 71.2034 586.125 71.1979C586.131 71.1868 586.137 71.1767 586.142 71.1676C586.154 71.1493 586.164 71.135 586.172 71.1242C586.188 71.1025 586.196 71.0965 586.189 71.1027C586.176 71.1144 586.099 71.1819 585.906 71.2675C585.514 71.442 584.665 71.6813 583 71.6813V73.6813C584.835 73.6813 585.986 73.4206 586.719 73.0951C587.089 72.9307 587.355 72.7481 587.545 72.5723C587.64 72.4848 587.714 72.4006 587.772 72.3242C587.8 72.2861 587.824 72.2503 587.845 72.2174C587.855 72.2009 587.864 72.1852 587.872 72.1704C587.876 72.163 587.88 72.1557 587.884 72.1488C587.886 72.1453 587.888 72.1418 587.889 72.1384C587.89 72.1368 587.891 72.1351 587.892 72.1334C587.892 72.1326 587.893 72.1314 587.893 72.1309C587.894 72.1297 587.894 72.1285 587 71.6813ZM586 69.5825V71.6813H588V69.5825H586ZM586.901 68.5874C586.276 68.6495 585.642 68.6813 585 68.6813V70.6813C585.708 70.6813 586.408 70.6462 587.099 70.5776L586.901 68.5874ZM585 68.6813H581V70.6813H585V68.6813ZM581 68.6813C580.358 68.6813 579.724 68.6495 579.099 68.5874L578.901 70.5776C579.592 70.6462 580.292 70.6813 581 70.6813V68.6813Z" fill="#CB333B"/>
<path d="M587.908 43.5199L588.845 43.8674L588.845 43.8674L587.908 43.5199ZM586.392 42.434L585.925 41.5498L586.392 42.434ZM586.941 45.5767L586.075 45.0767L586.941 45.5767ZM586.253 46.648L586.274 47.6477L586.777 47.6372L587.069 47.227L586.253 46.648ZM563.534 45.2003L562.652 45.6713L562.88 46.0988L563.357 46.1845L563.534 45.2003ZM563.746 32.1851L564.612 32.6851L563.746 32.1851ZM565.043 30.3192L564.273 29.6809L564.273 29.6809L565.043 30.3192ZM566.741 31.0888L565.742 31.1265V31.1265L566.741 31.0888ZM573.43 42.1945L572.93 43.0605L573.43 42.1945ZM588.845 43.8674C589.188 42.9444 588.776 42.1055 588.139 41.6687C587.532 41.253 586.677 41.1526 585.925 41.5498L586.859 43.3182C586.889 43.3023 586.918 43.2975 586.946 43.2994C586.977 43.3016 586.999 43.3122 587.008 43.3185C587.017 43.3246 586.996 43.3133 586.98 43.2683C586.971 43.2456 586.967 43.2213 586.968 43.1991C586.968 43.1769 586.972 43.1671 586.97 43.1724L588.845 43.8674ZM587.807 46.0767C588.221 45.3592 588.567 44.6202 588.845 43.8674L586.97 43.1724C586.73 43.8202 586.432 44.4571 586.075 45.0767L587.807 46.0767ZM587.069 47.227C587.33 46.8588 587.576 46.4752 587.807 46.0767L586.075 45.0767C585.876 45.4209 585.663 45.7517 585.438 46.069L587.069 47.227ZM583.05 47.6813C584.166 47.6813 585.241 47.6695 586.274 47.6477L586.232 45.6482C585.212 45.6696 584.152 45.6813 583.05 45.6813V47.6813ZM563.357 46.1845C566.711 46.7872 573.324 47.6813 583.05 47.6813V45.6813C573.448 45.6813 566.952 44.7986 563.711 44.2161L563.357 46.1845ZM562.88 31.6851C560.299 36.1552 560.39 41.4338 562.652 45.6713L564.416 44.7293C562.466 41.0757 562.39 36.5322 564.612 32.6851L562.88 31.6851ZM564.273 29.6809C563.761 30.2988 563.294 30.9677 562.88 31.6851L564.612 32.6851C564.969 32.0656 565.372 31.4892 565.813 30.9575L564.273 29.6809ZM567.741 31.0511C567.709 30.2012 567.194 29.5107 566.531 29.1932C565.834 28.8597 564.902 28.9231 564.273 29.6809L565.813 30.9575C565.816 30.9531 565.81 30.9618 565.791 30.973C565.772 30.9843 565.749 30.993 565.725 30.9972C565.678 31.0055 565.657 30.9926 565.667 30.9973C565.677 31.0021 565.698 31.0164 565.715 31.0422C565.731 31.065 565.741 31.0923 565.742 31.1265L567.741 31.0511ZM573.93 41.3285C570.1 39.1173 567.896 35.1706 567.741 31.0511L565.742 31.1265C565.922 35.9042 568.48 40.4913 572.93 43.0605L573.93 41.3285ZM585.925 41.5498C582.28 43.4751 577.76 43.5397 573.93 41.3285L572.93 43.0605C577.38 45.6298 582.631 45.5512 586.859 43.3182L585.925 41.5498Z" fill="#CB333B"/>
<path d="M598.195 45.8467L598.315 46.8395L598.871 46.7723L599.104 46.2637L598.195 45.8467ZM580.427 46.6589L579.56 47.1574L579.842 47.6491L580.409 47.6588L580.427 46.6589ZM598.102 41.6812C598.102 43.0209 597.809 44.2897 597.286 45.4297L599.104 46.2637C599.745 44.8674 600.102 43.3146 600.102 41.6812H598.102ZM589.102 32.6812C594.072 32.6812 598.102 36.7106 598.102 41.6812H600.102C600.102 35.606 595.177 30.6812 589.102 30.6812V32.6812ZM580.102 41.6812C580.102 36.7106 584.131 32.6812 589.102 32.6812V30.6812C583.026 30.6812 578.102 35.606 578.102 41.6812H580.102ZM581.293 46.1604C580.535 44.8422 580.102 43.3139 580.102 41.6812H578.102C578.102 43.673 578.632 45.544 579.56 47.1574L581.293 46.1604ZM580.409 47.6588C581.263 47.6734 582.143 47.6812 583.05 47.6812V45.6812C582.154 45.6812 581.285 45.6735 580.444 45.6591L580.409 47.6588ZM583.05 47.6812C589.538 47.6812 594.641 47.2833 598.315 46.8395L598.075 44.8539C594.479 45.2883 589.456 45.6812 583.05 45.6812V47.6812Z" fill="#CB333B"/>
<path d="M674.312 41.4076L678.408 37.3122C678.798 36.9217 678.798 36.2885 678.408 35.898L674.65 32.1402C674.259 31.7497 673.626 31.7497 673.236 32.1402L669.14 36.2357M674.312 41.4076L673.243 51.0335C673.218 51.2592 673.117 51.4696 672.956 51.6302L670.618 53.9681M674.312 41.4076L669.14 36.2357M669.14 36.2357L659.514 37.3052C659.289 37.3303 659.078 37.4314 658.918 37.592L656.58 39.9299M656.58 39.9299L637.707 58.8024C637.317 59.1929 637.317 59.8261 637.707 60.2166L650.331 72.8406C650.722 73.2311 651.355 73.2311 651.746 72.8406L670.618 53.9681M656.58 39.9299C656.58 39.9299 660.08 40.4747 661.567 41.9618C663.054 43.4489 663.599 46.949 663.599 46.949V46.949C663.599 46.949 664.144 50.4492 665.631 51.9363C667.118 53.4234 670.618 53.9681 670.618 53.9681" stroke="#CB333B" stroke-width="2"/>
<path d="M644.314 59.1074L657.614 45.8081" stroke="#CB333B" stroke-width="2" stroke-linecap="round"/>
<path d="M722.977 35.7442C722.977 35.7442 725.163 37.9302 735 37.9302C744.837 37.9302 747.023 35.7442 747.023 35.7442M722.977 35.7442C722.977 35.7442 725.709 33.5581 735 33.5581C736.199 33.5581 737.29 33.5946 738.279 33.658M722.977 35.7442L723.771 44.4883M747.023 35.7442L746.228 44.4883M747.023 35.7442C747.023 35.7442 745.901 34.8466 742.651 34.2018M723.771 44.4883L726.223 71.4534C726.244 71.6863 726.346 71.9032 726.535 72.0408C727.304 72.6002 729.752 74 735 74C740.248 74 742.696 72.6002 743.465 72.0408C743.654 71.9032 743.756 71.6863 743.777 71.4534L746.228 44.4883M723.771 44.4883C723.771 44.4883 727.033 42.3023 729.386 42.3023C733.58 42.3023 736.419 46.6744 740.614 46.6744C742.967 46.6744 746.228 44.4883 746.228 44.4883" stroke="#CB333B" stroke-width="2"/>
<path d="M727.35 40.1162L728.592 53.779" stroke="#CB333B" stroke-width="2" stroke-linecap="round"/>
<rect x="738.564" y="27" width="4.37209" height="41.5349" rx="2.18605" transform="rotate(3.41056 738.564 27)" stroke="#CB333B" stroke-width="2"/>
<path d="M796 67C791.582 62.5817 791.582 55.4183 796 51L812 35C816.418 30.5817 823.582 30.5817 828 35V35L796 67V67Z" stroke="#CB333B" stroke-width="2.26274"/>
<path d="M808.201 44.1999L800.201 52.1999C797.812 54.5893 796.715 57.7816 796.91 60.9083" stroke="#CB333B" stroke-width="2.26274" stroke-linecap="round"/>
<path d="M796.921 66.6799L797.731 67.4697L796.121 65.8799L796.921 66.6799ZM801.401 68.6L802.201 69.4L804.132 67.4686L801.401 67.4686L801.401 68.6ZM797.732 68.6L797.732 69.7314L797.732 68.6ZM812.682 57.3196L813.482 58.1196L815.413 56.1882L812.682 56.1882L812.682 57.3196ZM806.281 63.7197L805.15 63.7197L805.15 66.451L807.081 64.5197L806.281 63.7197ZM809.013 57.3196L809.013 56.1882L809.013 57.3196ZM808.211 55.3902L809.013 56.1884L807.411 54.5902L808.211 55.3902ZM804.361 59.2397L803.561 58.4397L805.151 60.0499L804.361 59.2397ZM806.281 60.0509L807.413 60.0509L807.413 60.0509L806.281 60.0509ZM815.633 47.9684L814.833 47.1684L816.431 48.7703L815.633 47.9684ZM817.562 48.7705L816.431 48.7705L816.431 48.7705L817.562 48.7705ZM817.562 52.4391L816.431 52.4391L816.431 55.1705L818.362 53.2391L817.562 52.4391ZM823.882 46.1195L824.682 46.9195L826.613 44.9881L823.882 44.9881L823.882 46.1195ZM820.213 46.1195L820.213 44.9881L820.213 44.9881L820.213 46.1195ZM819.402 44.1994L820.212 44.9892L818.602 43.3994L819.402 44.1994ZM828.762 37.5704L829.893 37.5704L829.893 37.5704L828.762 37.5704ZM826.842 36.7592L826.042 35.9592L827.632 37.5694L826.842 36.7592ZM828.762 41.2392L827.631 41.2392L827.631 43.9706L829.562 42.0392L828.762 41.2392ZM796.601 68.5999L797.721 67.4799L796.121 65.8799L795.001 66.9999L796.601 68.5999ZM796.601 70.1999C796.159 69.7581 796.159 69.0417 796.601 68.5999L795.001 66.9999C793.676 68.3254 793.676 70.4744 795.001 71.7999L796.601 70.1999ZM798.201 70.1999C797.759 70.6417 797.043 70.6417 796.601 70.1999L795.001 71.7999C796.327 73.1254 798.476 73.1254 799.801 71.7999L798.201 70.1999ZM800.601 67.8L798.201 70.1999L799.801 71.7999L802.201 69.4L800.601 67.8ZM801.401 67.4686L797.732 67.4686L797.732 69.7314L801.401 69.7314L801.401 67.4686ZM797.732 67.4686C797.726 67.4686 797.723 67.4682 797.722 67.468C797.721 67.4679 797.721 67.4679 797.723 67.4683C797.726 67.4694 797.73 67.4713 797.733 67.4736C797.736 67.4756 797.737 67.4767 797.736 67.4758C797.735 67.4748 797.734 67.4724 797.732 67.4688C797.731 67.4653 797.73 67.4624 797.73 67.4609C797.73 67.4595 797.73 67.4606 797.73 67.4639C797.729 67.4676 797.728 67.4718 797.726 67.4751C797.725 67.4766 797.725 67.477 797.725 67.4764C797.726 67.4758 797.728 67.4735 797.731 67.4697L796.111 65.8902C794.718 67.3195 795.726 69.7314 797.732 69.7314L797.732 67.4686ZM811.882 56.5196L805.481 62.9197L807.081 64.5197L813.482 58.1196L811.882 56.5196ZM812.682 56.1882L809.013 56.1882L809.013 58.4509L812.682 58.4509L812.682 56.1882ZM809.013 56.1882L809.013 56.1884L807.409 54.5921C805.989 56.0182 806.999 58.4509 809.013 58.4509L809.013 56.1882ZM805.161 60.0397L809.011 56.1902L807.411 54.5902L803.561 58.4397L805.161 60.0397ZM805.151 60.0499C805.155 60.0461 805.157 60.0444 805.158 60.044C805.158 60.0436 805.158 60.0439 805.157 60.0447C805.153 60.0464 805.149 60.0477 805.145 60.0483C805.142 60.0488 805.141 60.0485 805.142 60.0487C805.144 60.0489 805.147 60.0495 805.15 60.051C805.154 60.0525 805.156 60.0541 805.157 60.0549C805.158 60.0557 805.157 60.055 805.155 60.0521C805.153 60.0488 805.151 60.0449 805.15 60.0415C805.149 60.0401 805.149 60.0397 805.149 60.0408C805.15 60.0418 805.15 60.0451 805.15 60.0509L807.413 60.0509C807.413 58.0448 805.001 57.0363 803.572 58.4296L805.151 60.0499ZM805.15 60.0509L805.15 63.7197L807.413 63.7197L807.413 60.0509L805.15 60.0509ZM816.431 48.7703L816.431 48.7705L818.693 48.7705C818.693 46.7563 816.261 45.747 814.834 47.1666L816.431 48.7703ZM816.431 48.7705L816.431 52.4391L818.693 52.4391V48.7705L816.431 48.7705ZM823.082 45.3195L816.762 51.6391L818.362 53.2391L824.682 46.9195L823.082 45.3195ZM820.213 47.2509L823.882 47.2509L823.882 44.9881L820.213 44.9881L820.213 47.2509ZM818.592 43.4097C817.198 44.839 818.207 47.2509 820.213 47.2509L820.213 44.9881C820.207 44.9881 820.204 44.9877 820.203 44.9875C820.202 44.9874 820.202 44.9874 820.203 44.9878C820.207 44.9889 820.211 44.9908 820.214 44.9931C820.217 44.9951 820.218 44.9962 820.217 44.9953C820.216 44.9943 820.214 44.9919 820.213 44.9883C820.211 44.9848 820.211 44.9819 820.211 44.9804C820.21 44.979 820.211 44.9801 820.21 44.9834C820.21 44.9871 820.208 44.9913 820.207 44.9946C820.206 44.9961 820.205 44.9965 820.206 44.9959C820.206 44.9953 820.208 44.993 820.212 44.9892L818.592 43.4097ZM816.433 48.7684L820.202 44.9994L818.602 43.3994L814.833 47.1684L816.433 48.7684ZM829.893 37.5704C829.893 35.5643 827.481 34.5558 826.052 35.9491L827.632 37.5694C827.635 37.5657 827.638 37.5639 827.638 37.5635C827.639 37.5631 827.639 37.5634 827.637 37.5642C827.634 37.5659 827.63 37.5672 827.626 37.5678C827.622 37.5683 827.621 37.568 827.623 37.5682C827.624 37.5684 827.627 37.569 827.631 37.5705C827.634 37.572 827.637 37.5736 827.638 37.5744C827.639 37.5752 827.638 37.5745 827.635 37.5716C827.633 37.5683 827.631 37.5644 827.63 37.561C827.63 37.5596 827.63 37.5592 827.63 37.5603C827.63 37.5613 827.631 37.5646 827.631 37.5704L829.893 37.5704ZM829.893 41.2392L829.893 37.5704L827.631 37.5704L827.631 41.2392L829.893 41.2392ZM830.201 38.1999L827.962 40.4392L829.562 42.0392L831.801 39.7999L830.201 38.1999ZM830.201 36.5999C830.643 37.0417 830.643 37.758 830.201 38.1999L831.801 39.7999C833.127 38.4744 833.127 36.3254 831.801 34.9999L830.201 36.5999ZM828.601 36.5999C829.043 36.158 829.759 36.158 830.201 36.5999L831.801 34.9999C830.476 33.6744 828.327 33.6744 827.001 34.9999L828.601 36.5999ZM827.642 37.5592L828.601 36.5999L827.001 34.9999L826.042 35.9592L827.642 37.5592Z" fill="#CB333B"/>
<path d="M799 71L798.2 70.2L797.4 71L798.2 71.8L799 71ZM801.4 68.6001L801.4 67.4688L800.931 67.4688L800.6 67.8001L801.4 68.6001ZM831 39L831.8 38.2L831 37.4L830.2 38.2L831 39ZM828.761 41.2393L827.961 40.4393L827.629 40.7707L827.629 41.2393L828.761 41.2393ZM828.761 44.9883L827.629 44.9883L827.629 44.9883L828.761 44.9883ZM827.629 46.1196L827.629 44.9883L827.629 44.9883L827.629 46.1196ZM823.88 46.1196L823.88 44.9883L823.412 44.9883L823.08 45.3196L823.88 46.1196ZM817.561 52.4392L816.761 51.6392L816.429 51.9706L816.429 52.4392L817.561 52.4392ZM817.561 56.1883L818.692 56.1883L818.692 56.1883L817.561 56.1883ZM816.429 57.3197L816.429 56.1883L816.429 56.1883L816.429 57.3197ZM812.68 57.3197L812.68 56.1883H812.212L811.88 56.5197L812.68 57.3197ZM806.28 63.7198L805.48 62.9198L805.149 63.2512L805.149 63.7198L806.28 63.7198ZM806.28 67.4688L807.412 67.4688L807.412 67.4688H806.28ZM805.149 68.6001L805.149 67.4688L805.149 68.6001ZM799.8 71.8L802.2 69.4001L800.6 67.8001L798.2 70.2L799.8 71.8ZM803 73.4L799.8 70.2L798.2 71.8L801.4 75L803 73.4ZM803 73.4L803 73.4L801.4 75C802.284 75.8837 803.716 75.8837 804.6 75L803 73.4ZM833.4 43L803 73.4L804.6 75L835 44.6L833.4 43ZM833.4 43L835 44.6C835.884 43.7163 835.884 42.2836 835 41.4L833.4 43ZM830.2 39.8L833.4 43L835 41.4L831.8 38.2L830.2 39.8ZM829.561 42.0393L831.8 39.8L830.2 38.2L827.961 40.4393L829.561 42.0393ZM829.892 44.9883L829.892 41.2393L827.629 41.2393L827.629 44.9883L829.892 44.9883ZM827.629 47.251C828.879 47.251 829.892 46.2379 829.892 44.9883L827.629 44.9883L827.629 44.9883L827.629 47.251ZM823.88 47.251L827.629 47.251L827.629 44.9883L823.88 44.9883L823.88 47.251ZM818.361 53.2392L824.68 46.9196L823.08 45.3196L816.761 51.6392L818.361 53.2392ZM816.429 52.4392L816.429 56.1883L818.692 56.1883L818.692 52.4392L816.429 52.4392ZM816.429 56.1883L816.429 56.1883L816.429 58.4511C817.679 58.4511 818.692 57.438 818.692 56.1883L816.429 56.1883ZM816.429 56.1883L812.68 56.1883L812.68 58.4511L816.429 58.4511L816.429 56.1883ZM807.08 64.5198L813.48 58.1197L811.88 56.5197L805.48 62.9198L807.08 64.5198ZM805.149 63.7198L805.149 67.4688H807.412L807.412 63.7198L805.149 63.7198ZM805.149 67.4688L805.149 67.4688L805.149 69.7315C806.398 69.7315 807.412 68.7184 807.412 67.4688L805.149 67.4688ZM805.149 67.4688L801.4 67.4688L801.4 69.7315L805.149 69.7315L805.149 67.4688Z" fill="#CB333B"/>
<path d="M866 42.8709H896.216M866 42.8709V75.1612C866 75.7135 866.448 76.1612 867 76.1612H896.216M866 42.8709L871.811 30.387M896.216 42.8709V76.1612M896.216 42.8709L902.027 30.387M896.216 42.8709L904.206 38.5362M896.216 76.1612L908.477 69.5095C908.799 69.3346 909 68.9973 909 68.6306V36.4176C909 36.1129 908.861 35.8249 908.623 35.6351L902.027 30.387M902.027 30.387V25.8386C902.027 25.2863 901.579 24.8386 901.027 24.8386H872.811C872.259 24.8386 871.811 25.2863 871.811 25.8386V30.387M902.027 30.387H871.811" stroke="#CB333B" stroke-width="2" stroke-linecap="round"/>
<path d="M874.323 33.8547L872.242 38.7096M871.549 59.516V47.0322" stroke="#CB333B" stroke-width="2" stroke-linecap="round"/>
<path d="M967.234 31.822L967.234 26.6158C967.234 26.3366 967.117 26.0705 966.879 25.9247C966.314 25.5786 965.051 25 962.927 25C960.802 25 959.54 25.5786 958.974 25.9247C958.736 26.0705 958.619 26.3366 958.619 26.6158L958.619 31.822M967.234 31.822L971.928 37.689C973.67 39.8664 974.619 42.5719 974.619 45.3603V45.3603M967.234 31.822C967.234 31.822 965.958 32.9999 962.927 32.9999C959.895 32.9999 958.619 31.822 958.619 31.822M958.619 31.822L953.925 37.689C952.183 39.8664 951.234 42.5719 951.234 45.3603V45.3603M951.234 45.3603L951.234 75.31C951.234 75.5117 951.298 75.7083 951.452 75.8381C952.142 76.4177 954.738 77.9519 962.927 77.9754C971.144 77.9989 973.73 76.4242 974.408 75.8368C974.558 75.7073 974.619 75.514 974.619 75.3162L974.619 45.3603M951.234 45.3603C951.234 45.3603 954.603 42.8988 957.08 42.8988C959.558 42.8988 962.927 45.3603 962.927 45.3603C962.927 45.3603 962.927 45.3603 962.927 45.3603C962.927 45.3603 966.295 47.8219 968.773 47.8219C971.25 47.8219 974.619 45.3603 974.619 45.3603" stroke="#CB333B" stroke-width="2"/>
<path d="M956.992 71.5486L956.992 49.395" stroke="#CB333B" stroke-width="2" stroke-linecap="round"/>
<path d="M1022.12 75.3684C1025.78 79.0323 1031.72 79.0323 1035.39 75.3684C1039.05 71.7046 1058 57.1451 1058 42.7963C1058 35.4813 1052.07 29.5513 1044.76 29.5513C1037.44 29.5513 1031.51 35.4813 1031.51 42.7963C1031.51 50.1113 1025.78 58.4366 1022.12 62.1004C1018.45 65.7643 1018.45 71.7046 1022.12 75.3684Z" stroke="#CB333B" stroke-width="2"/>
<path d="M1046.15 40.5925C1045.69 38.89 1043.94 37.8797 1042.24 38.3359C1040.54 38.7921 1039.53 40.5419 1039.98 42.2444" stroke="#CB333B" stroke-width="2" stroke-linecap="round"/>
<path d="M1046.04 54.6522C1045.64 53.1593 1044.11 52.2734 1042.62 52.6734C1041.12 53.0734 1040.24 54.6079 1040.64 56.1008" stroke="#CB333B" stroke-width="2" stroke-linecap="round"/>
<path d="M1034.85 64.9584C1034.54 63.8252 1033.38 63.1527 1032.25 63.4563C1031.11 63.7599 1030.44 64.9248 1030.74 66.058" stroke="#CB333B" stroke-width="2" stroke-linecap="round"/>
<path d="M1049.74 23.1989C1049.26 22.9228 1048.65 23.0866 1048.37 23.5649C1048.1 24.0432 1048.26 24.6548 1048.74 24.931L1049.74 23.1989ZM1048.74 24.931C1050.76 26.0987 1051.46 28.6849 1050.29 30.7074L1052.02 31.7074C1053.74 28.7283 1052.72 24.9189 1049.74 23.1989L1048.74 24.931Z" fill="#CB333B"/>
<path d="M1122 70.7512L1122.99 70.9204L1122 70.7512ZM1121.97 70.7795L1120.97 70.6848L1121.97 70.7795ZM1108.03 70.7795L1109.03 70.6848L1108.03 70.7795ZM1108 70.7512L1107.01 70.9204L1108 70.7512ZM1097.68 49.9515L1096.87 49.3696L1097.68 49.9515ZM1125.32 59.4047L1125.05 60.3675L1125.32 59.4047ZM1123.8 60.2543L1124.79 60.4235L1123.8 60.2543ZM1100.45 33.602L1099.46 33.7579L1100.45 33.602ZM1099.42 35.1142L1099.64 36.0901L1099.42 35.1142ZM1113.8 27.6474L1113.05 28.3096L1113.8 27.6474ZM1132.32 49.9515L1131.51 50.5334L1132.32 49.9515ZM1132.79 47.4475L1132.26 46.6001L1132.79 47.4475ZM1104.68 59.4047L1104.41 58.4419L1104.68 59.4047ZM1130.58 35.1142L1130.36 36.0901L1130.58 35.1142ZM1129.55 33.602L1130.54 33.7579L1129.55 33.602ZM1125.05 60.3675C1125.7 60.5498 1126.38 60.647 1127.09 60.647V58.647C1126.57 58.647 1126.07 58.5752 1125.59 58.4419L1125.05 60.3675ZM1127.09 60.647C1131.13 60.647 1134.45 57.462 1134.45 53.4706H1132.45C1132.45 56.3015 1130.08 58.647 1127.09 58.647V60.647ZM1134.45 53.4706C1134.45 51.9453 1133.97 50.5305 1133.13 49.3696L1131.51 50.5334C1132.11 51.3695 1132.45 52.3804 1132.45 53.4706H1134.45ZM1133.32 48.2949C1135.52 46.9151 1137 44.499 1137 41.7353H1135C1135 43.7639 1133.92 45.5607 1132.26 46.6001L1133.32 48.2949ZM1137 41.7353C1137 38.0114 1134.33 34.9278 1130.79 34.1382L1130.36 36.0901C1133.04 36.6886 1135 39.0069 1135 41.7353H1137ZM1130.54 33.7579C1130.6 33.3377 1130.64 32.9077 1130.64 32.4706H1128.64C1128.64 32.8029 1128.61 33.1286 1128.56 33.4461L1130.54 33.7579ZM1130.64 32.4706C1130.64 27.797 1126.74 24.0588 1122 24.0588V26.0588C1125.69 26.0588 1128.64 28.9574 1128.64 32.4706H1130.64ZM1122 24.0588C1119.39 24.0588 1117.04 25.1906 1115.45 26.9852L1116.95 28.3096C1118.17 26.9349 1119.97 26.0588 1122 26.0588V24.0588ZM1114.55 26.9852C1112.96 25.1906 1110.61 24.0588 1108 24.0588V26.0588C1110.03 26.0588 1111.83 26.9349 1113.05 28.3096L1114.55 26.9852ZM1108 24.0588C1103.26 24.0588 1099.36 27.797 1099.36 32.4706H1101.36C1101.36 28.9574 1104.31 26.0588 1108 26.0588V24.0588ZM1099.36 32.4706C1099.36 32.9077 1099.4 33.3377 1099.46 33.7579L1101.44 33.4461C1101.39 33.1286 1101.36 32.8029 1101.36 32.4706H1099.36ZM1099.21 34.1382C1095.67 34.9278 1093 38.0114 1093 41.7353H1095C1095 39.0069 1096.96 36.6886 1099.64 36.0901L1099.21 34.1382ZM1093 41.7353C1093 44.499 1094.48 46.9151 1096.68 48.2949L1097.74 46.6001C1096.08 45.5607 1095 43.7639 1095 41.7353H1093ZM1096.87 49.3696C1096.03 50.5305 1095.55 51.9453 1095.55 53.4706H1097.55C1097.55 52.3804 1097.89 51.3695 1098.49 50.5334L1096.87 49.3696ZM1095.55 53.4706C1095.55 57.462 1098.87 60.647 1102.91 60.647V58.647C1099.92 58.647 1097.55 56.3015 1097.55 53.4706H1095.55ZM1102.91 60.647C1103.62 60.647 1104.3 60.5498 1104.95 60.3675L1104.41 58.4419C1103.93 58.5752 1103.43 58.647 1102.91 58.647V60.647ZM1108.98 70.5819L1107.18 60.0851L1105.21 60.4236L1107.01 70.9204L1108.98 70.5819ZM1115 75.9412C1111.85 75.9412 1109.3 73.608 1109.03 70.6848L1107.03 70.8742C1107.41 74.8625 1110.86 77.9412 1115 77.9412V75.9412ZM1120.97 70.6848C1120.7 73.608 1118.15 75.9412 1115 75.9412V77.9412C1119.14 77.9412 1122.59 74.8625 1122.97 70.8742L1120.97 70.6848ZM1122.82 60.0851L1121.02 70.5819L1122.99 70.9204L1124.79 60.4235L1122.82 60.0851ZM1121.99 71.7647C1122.48 71.7647 1122.9 71.4082 1122.99 70.9204L1121.02 70.5819C1121.1 70.1098 1121.51 69.7647 1121.99 69.7647V71.7647ZM1122.97 70.8742C1122.92 71.3729 1122.5 71.7647 1121.99 71.7647V69.7647C1121.46 69.7647 1121.02 70.1694 1120.97 70.6848L1122.97 70.8742ZM1108.01 71.7647C1107.5 71.7647 1107.08 71.3729 1107.03 70.8742L1109.03 70.6848C1108.98 70.1694 1108.54 69.7647 1108.01 69.7647V71.7647ZM1107.01 70.9204C1107.1 71.4082 1107.52 71.7647 1108.01 71.7647V69.7647C1108.49 69.7647 1108.9 70.1098 1108.98 70.5819L1107.01 70.9204ZM1096.68 48.2949C1096.74 48.3357 1096.88 48.4912 1096.93 48.7879C1096.99 49.0835 1096.92 49.2938 1096.87 49.3696L1098.49 50.5334C1098.95 49.8933 1099.02 49.0853 1098.9 48.4247C1098.78 47.7653 1098.42 47.0268 1097.74 46.6001L1096.68 48.2949ZM1125.59 58.4419C1124.5 58.137 1123.06 58.6941 1122.82 60.0851L1124.79 60.4235C1124.79 60.4216 1124.79 60.4227 1124.79 60.4208C1124.79 60.4169 1124.81 60.404 1124.83 60.3899C1124.89 60.3582 1124.98 60.3467 1125.05 60.3675L1125.59 58.4419ZM1099.46 33.7579C1099.49 33.9108 1099.36 34.1044 1099.21 34.1382L1099.64 36.0901C1100.82 35.8262 1101.63 34.6421 1101.44 33.4461L1099.46 33.7579ZM1115.45 26.9852C1115.4 27.0391 1115.25 27.1316 1115 27.1316C1114.75 27.1316 1114.6 27.0391 1114.55 26.9852L1113.05 28.3096C1113.57 28.9014 1114.34 29.1316 1115 29.1316C1115.66 29.1316 1116.43 28.9014 1116.95 28.3096L1115.45 26.9852ZM1133.13 49.3696C1133.08 49.2938 1133.01 49.0835 1133.07 48.7879C1133.12 48.4912 1133.26 48.3357 1133.32 48.2949L1132.26 46.6001C1131.58 47.0268 1131.22 47.7653 1131.1 48.4247C1130.98 49.0853 1131.05 49.8933 1131.51 50.5334L1133.13 49.3696ZM1104.95 60.3675C1105.02 60.3467 1105.11 60.3582 1105.17 60.3899C1105.19 60.404 1105.21 60.4169 1105.21 60.4208C1105.21 60.4227 1105.21 60.4216 1105.21 60.4236L1107.18 60.0851C1106.94 58.6941 1105.5 58.137 1104.41 58.4419L1104.95 60.3675ZM1130.79 34.1382C1130.64 34.1044 1130.51 33.9108 1130.54 33.7579L1128.56 33.4461C1128.37 34.6421 1129.18 35.8262 1130.36 36.0901L1130.79 34.1382Z" fill="#CB333B"/>
<path d="M1115 33.0881V43.5881M1115 76.3234V60.8823M1115 60.8823L1119.94 59.647M1115 60.8823L1110.06 59.647M1115 60.8823V54.0881M1127.35 48.5293L1115 54.0881M1115 54.0881L1102.65 48.5293M1115 54.0881V43.5881M1115 43.5881L1126.12 36.1764M1115 43.5881L1103.88 36.1764" stroke="#CB333B" stroke-width="2" stroke-linecap="round"/>
<path d="M1184.39 36C1184.39 35.4477 1183.94 35 1183.39 35H1178C1177.45 35 1177 35.4477 1177 36V66.016C1177 66.5683 1177.45 67.016 1178 67.016H1183.39C1183.94 67.016 1184.39 66.5683 1184.39 66.016V55.6383C1184.39 54.6953 1185.58 54.2764 1186.17 55.0101L1195.56 66.6442C1195.75 66.8793 1196.04 67.016 1196.34 67.016H1203.24C1204.09 67.016 1204.55 66.0295 1204.01 65.3778L1191.94 50.8159C1191.63 50.4415 1191.63 49.8979 1191.95 49.5281L1202.95 36.6496C1203.51 36.0006 1203.04 35 1202.19 35H1195.81C1195.51 35 1195.23 35.1343 1195.04 35.3659L1186.17 46.1819C1185.57 46.9081 1184.39 46.487 1184.39 45.5478V36Z" stroke="#CB333B" stroke-width="2"/>
<path d="M1279.18 59.6173C1279.18 58.7305 1278.08 58.2543 1277.35 58.7595C1275.24 60.2227 1273.34 60.544 1271.84 60.544C1267.9 60.544 1265.6 58.528 1264.93 57.856C1263.49 56.464 1262.14 54.112 1262.14 50.8C1262.14 47.728 1263.39 45.136 1265.17 43.408C1266.85 41.776 1269.01 40.912 1271.69 40.912C1273.97 40.912 1275.82 41.6626 1277.28 42.6765C1278.03 43.1918 1279.18 42.7095 1279.18 41.8048V36.4341C1279.18 36.0347 1278.95 35.672 1278.58 35.5223C1275.74 34.377 1273.48 34 1271.5 34C1266.51 34 1262.38 35.872 1259.55 38.608C1256.67 41.392 1254.56 45.616 1254.56 50.656C1254.56 55.792 1256.67 60.016 1259.55 62.8C1262.24 65.44 1266.22 67.456 1272.13 67.456C1273.92 67.456 1276.05 67.2046 1278.63 65.9972C1278.97 65.8377 1279.18 65.491 1279.18 65.1146V59.6173Z" stroke="#CB333B" stroke-width="2"/>
<path d="M1335.82 34.72C1335.27 34.72 1334.82 35.1677 1334.82 35.72V65.736C1334.82 66.2883 1335.27 66.736 1335.82 66.736H1351.15C1351.7 66.736 1352.15 66.2883 1352.15 65.736V61.496C1352.15 60.9437 1351.7 60.496 1351.15 60.496H1343.21C1342.66 60.496 1342.21 60.0483 1342.21 59.496V35.72C1342.21 35.1677 1341.76 34.72 1341.21 34.72H1335.82Z" stroke="#CB333B" stroke-width="2"/>
<path d="M1428.18 34.8208L1428.36 37.94C1428.38 38.1845 1428.48 38.4152 1428.65 38.5884L1430.24 40.1718L1431.82 41.7553C1431.99 41.9284 1432.23 42.032 1432.47 42.0464L1435.59 42.2299L1412.54 65.2805L1409.42 65.097C1409.17 65.0826 1408.94 64.979 1408.77 64.8058L1407.19 63.2224L1405.6 61.6389C1405.43 61.4658 1405.33 61.235 1405.31 60.9906L1405.13 57.8714L1428.18 34.8208Z" stroke="#CB333B" stroke-width="2"/>
<path d="M1405.13 57.8713L1405.31 60.9905C1405.33 61.235 1405.43 61.4657 1405.6 61.6389L1407.19 63.2224L1408.77 64.8058C1408.94 64.979 1409.17 65.0826 1409.42 65.097L1412.54 65.2804L1407.2 70.615C1407.03 70.7849 1406.81 70.888 1406.57 70.9053L1400.11 71.3715C1399.5 71.4154 1398.99 70.91 1399.04 70.3021L1399.5 63.841C1399.52 63.6013 1399.62 63.3758 1399.79 63.2058L1405.13 57.8713Z" stroke="#CB333B" stroke-width="2"/>
<path d="M1432.3 30.7046C1434.34 28.6586 1437.66 28.6586 1439.7 30.7046V30.7046C1441.75 32.7505 1441.75 36.0677 1439.7 38.1137L1435.59 42.2298L1432.47 42.0463C1432.22 42.032 1431.99 41.9284 1431.82 41.7552L1430.24 40.1717L1428.65 38.5883C1428.48 38.4151 1428.38 38.1844 1428.36 37.9399L1428.18 34.8207L1432.3 30.7046Z" stroke="#CB333B" stroke-width="2"/>
<path d="M1436.82 33.5859C1436.14 32.9039 1435.04 32.9039 1434.35 33.5859L1432.29 35.644" stroke="#CB333B" stroke-width="2" stroke-linecap="round"/>
<path d="M1477.62 31L1520.82 42.5774M1477.62 31L1470.26 58.4601C1470.12 58.9936 1470.43 59.5419 1470.97 59.6849L1512.24 70.7447C1512.78 70.8876 1513.32 70.571 1513.47 70.0376L1520.82 42.5774M1477.62 31L1494.02 53.7512C1494.3 54.1363 1494.81 54.2731 1495.24 54.0784L1520.82 42.5774" stroke="#CB333B" stroke-width="2"/>
<path d="M1475.62 56.6652L1479.42 42.4521" stroke="#CB333B" stroke-width="2" stroke-linecap="round"/>
<path d="M1569.24 28.9108C1569.64 27.6964 1571.36 27.6964 1571.76 28.9108L1576.45 43.2684C1576.63 43.8115 1577.14 44.1792 1577.71 44.1792H1592.89C1594.17 44.1792 1594.71 45.8132 1593.67 46.5637L1581.39 55.4372C1580.92 55.7729 1580.73 56.3678 1580.91 56.9109L1585.6 71.2686C1585.99 72.483 1584.6 73.4928 1583.56 72.7423L1571.28 63.8688C1570.81 63.5331 1570.18 63.5331 1569.72 63.8688L1557.44 72.7423C1556.4 73.4928 1555.01 72.483 1555.4 71.2686L1560.09 56.9109C1560.27 56.3678 1560.08 55.7729 1559.61 55.4372L1547.33 46.5637C1546.29 45.8132 1546.83 44.1792 1548.11 44.1792H1563.29C1563.86 44.1792 1564.37 43.8115 1564.55 43.2684L1569.24 28.9108Z" stroke="#CB333B" stroke-width="2"/>
</svg>
