<svg width="116" height="299" viewBox="0 0 116 299" fill="none" xmlns="http://www.w3.org/2000/svg">
<path d="M110.291 2C114.205 2 118.119 2 122.034 2C123.643 2.20595 125.246 2.46682 126.856 2.61099C139.513 3.72999 152.164 4.92451 164.828 5.89249C171.989 6.43483 179.15 6.85359 186.084 8.85819C207.072 14.9406 227.531 22.4029 247.012 32.3916C254.242 36.0987 260.55 40.9592 266.246 46.6434C280.486 60.8404 290.178 77.8589 297.126 96.5593C302.953 112.239 306.076 128.468 306.894 145.136C307.919 166.027 306.956 186.739 300.985 206.991C297.305 219.485 292.132 231.286 284.943 242.174C276.427 255.067 266.535 266.751 254.524 276.602C243.621 285.54 231.548 292.083 217.673 295.014C205.648 297.554 193.473 298.145 181.29 296.799C173.53 295.941 165.798 294.623 158.142 293.085C151.841 291.822 145.477 290.449 139.479 288.232C130.158 284.778 121.834 279.286 113.579 273.815C104.189 267.581 95.0608 260.936 85.5609 254.881C66.8223 242.95 49.4665 229.432 34.6697 212.778C23.8145 200.558 14.5347 187.398 9.05895 171.828C5.96337 163.034 3.11545 154.15 2.35187 144.841C1.36129 132.841 2.54449 120.91 4.8696 109.115C7.57307 95.3922 12.4778 82.3692 18.0705 69.6071C21.8815 60.9159 25.892 52.3208 31.5741 44.5839C36.2518 38.22 42.1472 33.0987 47.7467 27.6547C51.9773 23.5425 56.6551 20.1169 61.6562 16.9795C73.7014 9.40739 87.1293 5.93368 100.839 3.20825C103.949 2.59039 107.14 2.39131 110.291 2Z" stroke="white" stroke-width="3" stroke-miterlimit="10"/>
</svg>
