<svg width="920" height="910" viewBox="0 0 920 910" fill="none" xmlns="http://www.w3.org/2000/svg">
<path d="M567.802 97C573.868 97 579.933 97 585.998 97C588.492 97.3192 590.976 97.7235 593.47 97.947C613.084 99.6813 632.686 101.533 652.31 103.033C663.407 103.874 674.503 104.523 685.248 107.63C717.77 117.057 749.471 128.623 779.659 144.104C790.862 149.85 800.636 157.383 809.462 166.194C831.527 188.198 846.546 214.575 857.312 243.559C866.341 267.861 871.18 293.015 872.449 318.849C874.037 351.228 872.545 383.329 863.292 414.718C857.59 434.083 849.574 452.374 838.435 469.249C825.238 489.232 809.91 507.341 791.299 522.61C774.403 536.464 755.696 546.604 734.196 551.147C715.563 555.084 696.696 555.999 677.818 553.914C665.795 552.584 653.813 550.541 641.949 548.157C632.185 546.2 622.325 544.072 613.03 540.635C598.587 535.283 585.689 526.77 572.898 518.29C558.347 508.629 544.202 498.329 529.482 488.944C500.445 470.452 473.552 449.501 450.623 423.688C433.803 404.748 419.423 384.351 410.938 360.219C406.141 346.588 401.728 332.82 400.545 318.392C399.01 299.793 400.844 281.3 404.447 263.02C408.636 241.75 416.236 221.565 424.902 201.785C430.807 188.315 437.022 174.993 445.827 163.001C453.075 153.138 462.21 145.2 470.887 136.763C477.442 130.389 484.691 125.08 492.44 120.217C511.105 108.481 531.912 103.097 553.156 98.8727C557.974 97.9151 562.92 97.6065 567.802 97Z" fill="#CB333B"/>
<path d="M697.055 714.796C689.013 718.665 680.971 722.534 672.928 726.403C669.417 727.57 665.866 728.618 662.416 729.912C635.303 740.122 608.128 750.169 581.15 760.696C565.9 766.659 550.773 772.876 534.542 775.607C485.402 783.842 435.984 788.716 386.074 787.429C367.551 786.95 349.781 783.189 332.454 777.128C289.15 762.004 252.397 736.582 219.619 704.988C192.133 678.499 169.659 648.207 151.485 614.735C128.709 572.782 110.195 529.232 102.425 481.678C97.6248 452.343 96.5771 422.958 100.574 393.459C105.316 358.525 114.079 324.717 129.01 292.583C142.568 263.423 160.9 238.034 186.507 218.29C208.7 201.181 233.133 187.931 259.495 178.657C276.288 172.752 293.478 167.82 310.731 163.415C324.927 159.785 339.36 156.319 353.878 154.951C376.446 152.84 398.982 155.908 421.357 159.002C446.817 162.541 472.148 167.186 497.658 170.249C547.964 176.267 596.998 186.913 643.879 206.541C678.272 220.944 710.36 238.838 737.016 265.449C752.078 280.476 766.719 295.932 777.498 314.323C791.407 338.024 800.781 363.733 807.673 390.289C815.697 421.186 818.505 452.818 819.641 484.594C820.41 506.236 820.675 527.878 816.655 549.407C813.341 567.119 806.295 583.48 800.177 600.211C795.553 612.85 789.331 624.519 782.16 635.915C764.904 663.395 740.752 683.812 715.28 702.968C709.502 707.313 703.141 710.877 697.055 714.796Z" stroke="white" stroke-width="4" stroke-miterlimit="10"/>
</svg>
