<svg width="155" height="155" viewBox="0 0 155 155" fill="none" xmlns="http://www.w3.org/2000/svg">
<path d="M31.6332 113.697L29.2615 112.906L31.6332 113.697ZM41.8666 123.93L42.6572 126.302L41.8666 123.93ZM49.5669 124.708L48.3603 126.898L49.5669 124.708ZM42.08 123.859L41.2895 121.487L42.08 123.859ZM108.052 30.6389L106.783 32.793L108.052 30.6389ZM31.7044 113.483L29.3327 112.693L31.7044 113.483ZM37.123 47.7297C21.0119 63.8408 18.1969 88.2057 28.6657 107.203L33.0449 104.79C23.6214 87.6896 26.1634 65.7603 40.6585 51.2652L37.123 47.7297ZM48.6135 36.2392L37.123 47.7297L40.6585 51.2652L52.149 39.7747L48.6135 36.2392ZM109.32 28.4847C90.1537 17.1964 65.0751 19.7775 48.6135 36.2392L52.149 39.7747C66.9599 24.9639 89.532 22.633 106.783 32.793L109.32 28.4847ZM124.218 32.294L123.269 31.3457L119.734 34.8812L120.682 35.8295L124.218 32.294ZM119.324 106.95C135.786 90.4883 138.367 65.4098 127.079 46.2432L122.77 48.7806C132.93 66.0315 130.599 88.6035 115.789 103.414L119.324 106.95ZM107.834 118.44L119.324 106.95L115.789 103.414L104.298 114.905L107.834 118.44ZM48.3603 126.898C67.3578 137.366 91.7226 134.551 107.834 118.44L104.298 114.905C89.8031 129.4 67.8739 131.942 50.7735 122.519L48.3603 126.898ZM41.2895 121.487L41.076 121.559L42.6572 126.302L42.8706 126.231L41.2895 121.487ZM34.005 114.487L34.0761 114.274L29.3327 112.693L29.2615 112.906L34.005 114.487ZM35.3554 120.208C33.8582 118.711 33.3354 116.496 34.005 114.487L29.2615 112.906C27.9931 116.712 28.9835 120.907 31.8199 123.744L35.3554 120.208ZM41.076 121.559C39.0673 122.228 36.8526 121.705 35.3554 120.208L31.8199 123.744C34.6563 126.58 38.8517 127.57 42.6572 126.302L41.076 121.559ZM50.7735 122.519C47.9743 120.976 44.5441 120.402 41.2895 121.487L42.8706 126.231C44.5869 125.659 46.5703 125.911 48.3603 126.898L50.7735 122.519ZM120.682 35.8295C121.889 37.0362 122.31 38.821 121.771 40.4398L126.514 42.021C127.653 38.6054 126.764 34.8398 124.218 32.294L120.682 35.8295ZM115.124 33.7929C116.742 33.2533 118.527 33.6746 119.734 34.8812L123.269 31.3457C120.724 28.7999 116.958 27.9109 113.543 29.0495L115.124 33.7929ZM106.783 32.793C109.219 34.2277 112.252 34.7501 115.124 33.7929L113.543 29.0495C112.226 29.4883 110.688 29.2905 109.32 28.4847L106.783 32.793ZM121.771 40.4398C120.813 43.3116 121.336 46.3446 122.77 48.7806L127.079 46.2432C126.273 44.875 126.075 43.3375 126.514 42.021L121.771 40.4398ZM28.6657 107.203C29.6521 108.993 29.9048 110.977 29.3327 112.693L34.0761 114.274C35.161 111.019 34.5874 107.589 33.0449 104.79L28.6657 107.203Z" fill="#CB333B"/>
<path d="M93.6923 40.6587V40.6587C80.3799 38.4399 66.8154 42.7869 57.2722 52.3301L54.0985 55.5038C44.5553 65.047 40.2084 78.6115 42.4271 91.9239V91.9239" stroke="#CB333B" stroke-width="5" stroke-linecap="round"/>
</svg>
