<svg width="80" height="80" viewBox="0 0 80 80" fill="none" xmlns="http://www.w3.org/2000/svg">
<path d="M62.1879 16.9486L61.2832 17.8534L62.1879 16.9486ZM55.3038 15.682L54.6545 16.7846L55.3038 15.682ZM63.9399 24.3181L65.0424 23.6688L63.9399 24.3181ZM16.2272 58.0842L17.4411 58.4889L16.2272 58.0842ZM19.0006 24.4296C10.7544 32.6757 9.31366 45.1463 14.6719 54.8698L16.9133 53.6347C12.0901 44.8822 13.3912 33.6582 20.8102 26.2392L19.0006 24.4296ZM24.8818 18.5484L19.0006 24.4296L20.8102 26.2392L26.6913 20.358L24.8818 18.5484ZM55.9532 14.5795C46.1432 8.8018 33.3073 10.1229 24.8818 18.5484L26.6913 20.358C34.2719 12.7774 45.825 11.5844 54.6545 16.7846L55.9532 14.5795ZM63.5781 16.5292L63.0927 16.0438L61.2832 17.8534L61.7685 18.3388L63.5781 16.5292ZM61.0734 54.7401C69.4989 46.3146 70.82 33.4788 65.0424 23.6688L62.8373 24.9675C68.0375 33.797 66.8444 45.35 59.2639 52.9305L61.0734 54.7401ZM55.1923 60.6213L61.0734 54.7401L59.2639 52.9305L53.3827 58.8117L55.1923 60.6213ZM24.7522 64.95C34.4756 70.3082 46.9462 68.8674 55.1923 60.6213L53.3827 58.8117C45.9637 66.2307 34.7397 67.5318 25.9873 62.7086L24.7522 64.95ZM21.1331 62.1808L21.0239 62.2172L21.8331 64.6451L21.9424 64.6086L21.1331 62.1808ZM17.4047 58.5981L17.4411 58.4889L15.0133 57.6796L14.9769 57.7888L17.4047 58.5981ZM18.0959 61.526C17.3296 60.7597 17.062 59.6262 17.4047 58.5981L14.9769 57.7888C14.3276 59.7365 14.8346 61.8839 16.2863 63.3356L18.0959 61.526ZM21.0239 62.2172C19.9957 62.56 18.8622 62.2924 18.0959 61.526L16.2863 63.3356C17.738 64.7874 19.8854 65.2943 21.8331 64.6451L21.0239 62.2172ZM25.9873 62.7086C24.5546 61.9191 22.7989 61.6256 21.1331 62.1808L21.9424 64.6086C22.8208 64.3158 23.836 64.4451 24.7522 64.95L25.9873 62.7086ZM61.7685 18.3388C62.3861 18.9564 62.6018 19.8699 62.3256 20.6984L64.7534 21.5077C65.3361 19.7596 64.8811 17.8322 63.5781 16.5292L61.7685 18.3388ZM58.9235 17.2963C59.7521 17.0201 60.6656 17.2358 61.2832 17.8534L63.0927 16.0438C61.7897 14.7408 59.8624 14.2858 58.1142 14.8685L58.9235 17.2963ZM54.6545 16.7846C55.9013 17.5189 57.4536 17.7863 58.9235 17.2963L58.1142 14.8685C57.4404 15.0931 56.6535 14.9919 55.9532 14.5795L54.6545 16.7846ZM62.3256 20.6984C61.8356 22.1683 62.103 23.7206 62.8373 24.9675L65.0424 23.6688C64.63 22.9685 64.5288 22.1816 64.7534 21.5077L62.3256 20.6984ZM14.6719 54.8698C15.1768 55.786 15.3061 56.8011 15.0133 57.6796L17.4411 58.4889C17.9964 56.8231 17.7028 55.0674 16.9133 53.6347L14.6719 54.8698Z" fill="white"/>
<path d="M47.9534 20.8101V20.8101C41.1397 19.6745 34.197 21.8994 29.3126 26.7839L27.6881 28.4083C22.8037 33.2928 20.5788 40.2354 21.7144 47.0491V47.0491" stroke="white" stroke-width="2.55914" stroke-linecap="round"/>
</svg>
