<svg width="62" height="62" viewBox="0 0 62 62" fill="none" xmlns="http://www.w3.org/2000/svg">
<path d="M39.2503 45.8798L40.1598 45.4642L39.7493 44.5657L38.8458 44.9652L39.2503 45.8798ZM16.4402 23.0698L17.3548 23.4742L17.7543 22.5708L16.8558 22.1602L16.4402 23.0698ZM8.7428 19.5525L9.1584 18.643L9.1584 18.643L8.7428 19.5525ZM8.7305 17.7392L8.3026 16.8354L8.3026 16.8354L8.7305 17.7392ZM14.5216 14.9975L14.0937 14.0937L14.0937 14.0937L14.5216 14.9975ZM14.9975 14.5216L15.9013 14.9495L15.9013 14.9495L14.9975 14.5216ZM17.7392 8.73049L16.8354 8.30259L16.8354 8.30259L17.7392 8.73049ZM19.5526 8.74279L20.4621 8.32719L19.5526 8.74279ZM23.0698 16.4402L22.1602 16.8558L22.5708 17.7543L23.4742 17.3548L23.0698 16.4402ZM45.8798 39.2503L44.9652 38.8458L44.5657 39.7493L45.4642 40.1598L45.8798 39.2503ZM53.5773 42.7675L53.9929 41.8579L53.9929 41.8579L53.5773 42.7675ZM53.5896 44.5809L53.1617 43.677L53.1617 43.677L53.5896 44.5809ZM47.7985 47.3225L48.2264 48.2264L47.7985 47.3225ZM47.3226 47.7985L48.2264 48.2264L47.3226 47.7985ZM44.5809 53.5896L45.4847 54.0175L44.5809 53.5896ZM42.7675 53.5773L41.858 53.9929L41.858 53.9929L42.7675 53.5773ZM24.0889 43.8879C28.2988 48.0978 34.5208 49.0647 39.6547 46.7943L38.8458 44.9652C34.4423 46.9125 29.1095 46.0801 25.5032 42.4737L24.0889 43.8879ZM18.4321 38.2311L24.0889 43.8879L25.5032 42.4737L19.8463 36.8169L18.4321 38.2311ZM15.5257 22.6653C13.2554 27.7992 14.2222 34.0212 18.4321 38.2311L19.8463 36.8169C16.2399 33.2105 15.4075 27.8777 17.3548 23.4742L15.5257 22.6653ZM8.32719 20.4621L16.0246 23.9793L16.8558 22.1602L9.1584 18.643L8.32719 20.4621ZM8.3026 16.8354C6.76553 17.563 6.78039 19.7553 8.3272 20.4621L9.1584 18.643L9.1584 18.643L8.3026 16.8354ZM14.0937 14.0937L8.3026 16.8354L9.1584 18.643L14.9495 15.9013L14.0937 14.0937ZM14.0937 14.0937L14.0937 14.0937L14.9495 15.9013C15.3672 15.7035 15.7036 15.3672 15.9013 14.9495L14.0937 14.0937ZM16.8354 8.30259L14.0937 14.0937L15.9013 14.9495L18.643 9.15839L16.8354 8.30259ZM20.4621 8.32719C19.7553 6.78038 17.5631 6.76552 16.8354 8.30259L18.643 9.15839L18.643 9.15839L20.4621 8.32719ZM23.9793 16.0246L20.4621 8.32719L18.643 9.15839L22.1602 16.8558L23.9793 16.0246ZM38.2311 18.4321C34.0212 14.2222 27.7992 13.2553 22.6653 15.5257L23.4742 17.3548C27.8778 15.4075 33.2105 16.2399 36.8169 19.8463L38.2311 18.4321ZM43.8879 24.0889L38.2311 18.4321L36.8169 19.8463L42.4737 25.5031L43.8879 24.0889ZM46.7943 39.6547C49.0647 34.5208 48.0978 28.2988 43.8879 24.0889L42.4737 25.5031C46.0801 29.1095 46.9126 34.4423 44.9652 38.8458L46.7943 39.6547ZM45.4642 40.1598L53.1617 43.677L53.9929 41.8579L46.2954 38.3407L45.4642 40.1598ZM53.1617 43.677L53.1617 43.677L54.0175 45.4847C55.5545 44.757 55.5397 42.5647 53.9929 41.8579L53.1617 43.677ZM53.1617 43.677L47.3706 46.4187L48.2264 48.2264L54.0175 45.4847L53.1617 43.677ZM47.3706 46.4187C46.9528 46.6165 46.6165 46.9528 46.4187 47.3706L48.2264 48.2264L47.3706 46.4187ZM46.4187 47.3706L43.677 53.1617L45.4847 54.0175L48.2264 48.2264L46.4187 47.3706ZM43.677 53.1617L43.677 53.1617L41.858 53.9929C42.5647 55.5397 44.757 55.5545 45.4847 54.0175L43.677 53.1617ZM43.677 53.1617L40.1598 45.4642L38.3407 46.2954L41.858 53.9929L43.677 53.1617Z" fill="#CB333B"/>
<path d="M23.0306 22.6752C26.1548 19.551 31.2202 19.551 34.3444 22.6752" stroke="#CB333B" stroke-width="2" stroke-linecap="round"/>
</svg>
