<svg width="155" height="155" viewBox="0 0 155 155" fill="none" xmlns="http://www.w3.org/2000/svg">
<path d="M61.9897 107.953L63.7575 106.185L61.9897 107.953ZM98.1259 114.7L100.4 113.661L99.3734 111.415L97.1148 112.414L98.1259 114.7ZM47.8476 93.811L46.0798 95.5787L47.8476 93.811ZM41.1004 57.675L43.3868 58.6861L44.3856 56.4275L42.1394 55.4011L41.1004 57.675ZM21.857 48.882L22.896 46.6082L22.896 46.6082L21.857 48.882ZM21.8262 44.3486L22.896 46.6082L22.896 46.6082L21.8262 44.3486ZM36.3039 37.4944L37.3737 39.754L37.3737 39.754L36.3039 37.4944ZM37.4938 36.3046L39.7533 37.3744L39.7533 37.3743L37.4938 36.3046ZM44.3479 21.8269L42.0884 20.7572L44.3479 21.8269ZM48.8814 21.8576L46.6075 22.8966L48.8814 21.8576ZM57.6745 41.1014L55.4006 42.1404L56.4269 44.3866L58.6855 43.3878L57.6745 41.1014ZM93.8095 47.849L95.5773 46.0812L93.8095 47.849ZM107.952 61.9911L106.184 63.7589L107.952 61.9911ZM114.699 98.1264L112.413 97.1154L111.414 99.3739L113.66 100.4L114.699 98.1264ZM133.944 106.92L134.983 104.646L134.983 104.646L133.944 106.92ZM133.974 111.453L132.905 109.194L132.905 109.194L133.974 111.453ZM119.497 118.307L118.427 116.048L118.427 116.048L119.497 118.307ZM118.307 119.497L120.566 120.567L120.566 120.567L118.307 119.497ZM111.453 133.975L113.712 135.045L113.712 135.045L111.453 133.975ZM106.919 133.944L109.193 132.905L109.193 132.905L106.919 133.944ZM60.2219 109.721C70.7468 120.246 86.3022 122.663 99.1371 116.987L97.1148 112.414C86.1058 117.282 72.7736 115.201 63.7575 106.185L60.2219 109.721ZM46.0798 95.5787L60.2219 109.721L63.7575 106.185L49.6153 92.0432L46.0798 95.5787ZM38.814 56.6638C33.1379 69.4987 35.555 85.0539 46.0798 95.5787L49.6153 92.0432C40.5992 83.0271 38.5182 69.695 43.3868 58.6861L38.814 56.6638ZM20.818 51.1559L40.0614 59.9488L42.1394 55.4011L22.896 46.6082L20.818 51.1559ZM20.7565 42.0891C16.9138 43.9083 16.951 49.389 20.818 51.1559L22.896 46.6082L22.896 46.6082L20.7565 42.0891ZM35.2342 35.2348L20.7565 42.0891L22.896 46.6082L37.3737 39.754L35.2342 35.2348ZM35.2342 35.2348L35.2342 35.2349L37.3737 39.754C38.418 39.2595 39.2589 38.4187 39.7533 37.3744L35.2342 35.2348ZM42.0884 20.7572L35.2342 35.2349L39.7533 37.3743L46.6075 22.8966L42.0884 20.7572ZM51.1553 20.8186C49.3883 16.9516 43.9076 16.9145 42.0884 20.7572L46.6075 22.8966L46.6075 22.8966L51.1553 20.8186ZM59.9483 40.0624L51.1552 20.8186L46.6075 22.8966L55.4006 42.1404L59.9483 40.0624ZM95.5773 46.0812C85.0527 35.5567 69.4981 33.1395 56.6634 38.815L58.6855 43.3878C69.6943 38.5197 83.0259 40.6009 92.0417 49.6168L95.5773 46.0812ZM109.719 60.2234L95.5773 46.0812L92.0417 49.6168L106.184 63.7589L109.719 60.2234ZM116.986 99.1375C122.661 86.3028 120.244 70.748 109.719 60.2234L106.184 63.7589C115.2 72.7748 117.281 86.1065 112.413 97.1154L116.986 99.1375ZM113.66 100.4L132.905 109.194L134.983 104.646L115.738 95.8526L113.66 100.4ZM132.905 109.194L132.905 109.194L135.044 113.713C138.887 111.894 138.85 106.413 134.983 104.646L132.905 109.194ZM132.905 109.194L118.427 116.048L120.566 120.567L135.044 113.713L132.905 109.194ZM118.427 116.048C117.382 116.542 116.542 117.383 116.047 118.428L120.566 120.567L120.566 120.567L118.427 116.048ZM116.047 118.428L109.193 132.905L113.712 135.045L120.566 120.567L116.047 118.428ZM109.193 132.905L109.193 132.905L104.645 134.983C106.412 138.85 111.893 138.887 113.712 135.045L109.193 132.905ZM109.193 132.905L100.4 113.661L95.8521 115.739L104.645 134.983L109.193 132.905Z" fill="#CB333B"/>
<path d="M57.5756 56.6875C65.3861 48.877 78.0494 48.877 85.8599 56.6875" stroke="#CB333B" stroke-width="5" stroke-linecap="round"/>
</svg>
