<svg width="46" height="46" viewBox="0 0 46 46" fill="none" xmlns="http://www.w3.org/2000/svg">
<path d="M11.5418 14.6887L12.2489 15.3958L11.5418 14.6887ZM14.9519 11.2786L14.2448 10.5715L14.9519 11.2786ZM34.8877 31.2144L35.5948 31.9215L34.8877 31.2144ZM31.4777 34.6245L30.7706 33.9174L31.4777 34.6245ZM9.38791 33.7414L8.43923 33.4252L9.38791 33.7414ZM12.4249 36.7784L12.7411 37.7271L12.4249 36.7784ZM14.7102 37.0093L14.2276 37.8851L14.7102 37.0093ZM12.4883 36.7573L12.8045 37.706L12.4883 36.7573ZM32.0669 9.09191L32.5744 8.23025L32.0669 9.09191ZM37.0744 14.0994L36.2127 14.6069L37.0744 14.0994ZM9.15705 31.4561L10.0329 30.9735L9.15705 31.4561ZM10.8347 13.9816C5.96994 18.8463 5.12042 26.2028 8.28123 31.9387L10.0329 30.9735C7.29024 25.9964 8.03056 19.6141 12.2489 15.3958L10.8347 13.9816ZM14.2448 10.5715L10.8347 13.9816L12.2489 15.3958L15.659 11.9857L14.2448 10.5715ZM32.5744 8.23025C26.7874 4.82196 19.2153 5.60091 14.2448 10.5715L15.659 11.9857C19.9693 7.67543 26.5387 6.99659 31.5595 9.95358L32.5744 8.23025ZM37.0471 9.40063L36.7657 9.11919L35.3515 10.5334L35.6329 10.8148L37.0471 9.40063ZM35.5948 31.9215C40.5654 26.951 41.3444 19.3789 37.9361 13.5919L36.2127 14.6069C39.1697 19.6276 38.4909 26.1971 34.1806 30.5073L35.5948 31.9215ZM32.1848 35.3316L35.5948 31.9215L34.1806 30.5073L30.7706 33.9174L32.1848 35.3316ZM14.2276 37.8851C19.9635 41.0459 27.32 40.1964 32.1848 35.3316L30.7706 33.9174C26.5522 38.1358 20.1699 38.8761 15.1929 36.1334L14.2276 37.8851ZM12.172 35.8086L12.1087 35.8297L12.7411 37.7271L12.8045 37.706L12.172 35.8086ZM10.3366 34.0576L10.3577 33.9943L8.46035 33.3618L8.43923 33.4252L10.3366 34.0576ZM10.675 35.4913C10.2998 35.1161 10.1688 34.5611 10.3366 34.0576L8.43923 33.4252C8.03187 34.6473 8.34993 35.9946 9.26082 36.9055L10.675 35.4913ZM12.1087 35.8297C11.6053 35.9975 11.0503 35.8665 10.675 35.4913L9.26082 36.9055C10.1717 37.8164 11.5191 38.1345 12.7411 37.7271L12.1087 35.8297ZM15.1929 36.1334C14.31 35.647 13.2173 35.4602 12.172 35.8086L12.8045 37.706C13.2345 37.5626 13.7485 37.6211 14.2276 37.8851L15.1929 36.1334ZM35.6329 10.8148C35.9219 11.1038 36.0228 11.5313 35.8936 11.919L37.7909 12.5514C38.1597 11.4451 37.8718 10.2253 37.0471 9.40063L35.6329 10.8148ZM34.2473 10.2728C34.6351 10.1435 35.0625 10.2444 35.3515 10.5334L36.7657 9.11919C35.941 8.29455 34.7213 8.0066 33.6149 8.37539L34.2473 10.2728ZM31.5595 9.95358C32.3375 10.4118 33.3148 10.5836 34.2473 10.2728L33.6149 8.37539C33.3044 8.47887 32.9253 8.43692 32.5744 8.23025L31.5595 9.95358ZM35.8936 11.919C35.5827 12.8515 35.7545 13.8288 36.2127 14.6069L37.9361 13.5919C37.7294 13.241 37.6875 12.8619 37.7909 12.5514L35.8936 11.919ZM8.28123 31.9387C8.54526 32.4179 8.60368 32.9318 8.46035 33.3618L10.3577 33.9943C10.7061 32.949 10.5194 31.8563 10.0329 30.9735L8.28123 31.9387Z" fill="#CB333B"/>
<path d="M27.8046 12.0676V12.0676C23.8538 11.4091 19.8282 12.6992 16.996 15.5313L16.0541 16.4732C13.222 19.3054 11.9319 23.331 12.5904 27.2818V27.2818" stroke="#CB333B" stroke-width="2" stroke-linecap="round"/>
</svg>
