<svg width="155" height="155" viewBox="0 0 155 155" fill="none" xmlns="http://www.w3.org/2000/svg">
<path d="M103.765 43.75C93.41 43.75 85.0153 52.1447 85.0153 62.5C84.5987 82.0833 92.5153 123.75 127.515 133.75C110.015 111.25 122.515 78.75 122.515 62.5C122.515 52.1447 114.121 43.75 103.765 43.75Z" stroke="#CB333B" stroke-width="5" stroke-linejoin="round"/>
<path d="M102.5 43.75C102.5 31.25 110 22.5 116.25 22.5M95 60C95 55.8579 98.3579 52.5 102.5 52.5" stroke="#CB333B" stroke-width="5" stroke-linecap="round"/>
<path d="M46.2653 43.75C35.91 43.75 27.5153 52.1447 27.5153 62.5C27.0987 82.0833 35.0153 123.75 70.0153 133.75C52.5154 111.25 65.0153 78.75 65.0153 62.5C65.0153 52.1447 56.6207 43.75 46.2653 43.75Z" stroke="#CB333B" stroke-width="5" stroke-linejoin="round"/>
<path d="M45 43.75C45 31.25 52.5 22.5 58.75 22.5M37.5 60C37.5 55.8579 40.8579 52.5 45 52.5" stroke="#CB333B" stroke-width="5" stroke-linecap="round"/>
</svg>
