<svg width="155" height="155" viewBox="0 0 155 155" fill="none" xmlns="http://www.w3.org/2000/svg">
<path d="M78.75 39.5757C71.828 35.1718 63.5539 32.5 55.504 32.5C35.9407 32.5 20.0019 48.2679 20.0019 67.8164V67.8757L20.0029 67.935C20.2498 82.6894 26.1219 96.047 35.5415 105.979M78.75 39.5757C85.672 35.1718 93.9461 32.5 101.996 32.5C121.559 32.5 137.498 48.2679 137.498 67.8164V67.8757L137.497 67.935C137.25 82.6894 131.378 96.047 121.958 105.979M78.75 39.5757L67.7192 49.6433M121.958 105.979L132.817 109.902C136.5 111.233 138.407 115.297 137.076 118.98C135.746 122.662 131.682 124.569 127.999 123.239L108.783 116.297M121.958 105.979L106.907 100.542M108.783 116.297C100.526 120.986 90.9789 123.661 80.8312 123.661H76.6688C66.5211 123.661 56.9735 120.986 48.7169 116.297M108.783 116.297L88.6311 108.767M48.7169 116.297L29.5013 123.239C25.8184 124.569 21.7542 122.662 20.4237 118.98C19.0933 115.297 21.0003 111.233 24.6832 109.902L35.5415 105.979M48.7169 116.297L35.5415 105.979M68.8689 108.767C71.3967 109.235 74.0036 109.48 76.6688 109.48H80.8312C83.4964 109.48 86.1033 109.235 88.6311 108.767M68.8689 108.767C72.2772 107.159 75.6288 105.148 78.75 102.807M68.8689 108.767L50.5933 100.542M88.6311 108.767C85.2228 107.159 81.8712 105.148 78.75 102.807M78.75 102.807L88.9853 92.6925M68.5147 92.6925C65.6174 94.6502 62.5234 96.2319 59.5096 97.3206L50.5933 100.542M68.5147 92.6925C64.2889 87.0516 61.3282 80.2781 61.3282 72.7891V67.8164C61.3282 60.9302 63.8774 54.7583 67.7192 49.6433M68.5147 92.6925L78.75 82.6011M50.5933 100.542C40.7896 92.9131 34.4246 81.0968 34.1826 67.7591C34.2137 56.1559 43.704 46.6806 55.504 46.6806C59.4614 46.6806 63.7478 47.7437 67.7192 49.6433M88.9853 92.6925C91.8826 94.6502 94.9766 96.2319 97.9904 97.3206L106.907 100.542M88.9853 92.6925C93.211 87.0516 96.1718 80.2781 96.1718 72.7891V67.8164C96.1718 60.9302 93.6226 54.7583 89.7808 49.6433M106.907 100.542C116.71 92.9131 123.075 81.0967 123.317 67.7589C123.286 56.1559 113.796 46.6806 101.996 46.6806C98.0386 46.6806 93.7522 47.7437 89.7808 49.6433M89.7808 49.6433L78.75 58.5694M78.75 58.5694C80.8777 61.551 81.9913 64.7265 81.9913 67.8164V72.7891C81.9913 75.9615 80.8719 79.313 78.75 82.6011M78.75 58.5694C76.6223 61.551 75.5087 64.7265 75.5087 67.8164V72.7891C75.5087 75.9615 76.6281 79.313 78.75 82.6011" stroke="#CB333B" stroke-width="5" stroke-linecap="round"/>
</svg>
