<svg width="241" height="1233" viewBox="0 0 241 1233" fill="none" xmlns="http://www.w3.org/2000/svg">
<path d="M-550.647 1230.54C-534.847 1229.07 -519.046 1227.59 -503.245 1226.11C-496.825 1224.67 -490.453 1223.01 -484.009 1221.82C-433.336 1212.52 -382.719 1202.92 -331.961 1194.23C-303.258 1189.34 -274.508 1184.94 -247.274 1174.22C-164.847 1141.72 -85.0802 1103.85 -10.2108 1056.13C17.5743 1038.42 41.2026 1016.4 62.0481 991.281C114.167 928.538 146.864 856.109 167.846 777.92C185.443 712.36 191.919 645.602 188.926 577.937C185.171 493.134 173.457 409.803 141.702 330.22C122.125 281.12 96.7834 235.386 63.6506 194.102C24.4009 145.218 -19.9461 101.737 -72.1537 66.4616C-119.545 34.458 -170.753 12.5774 -227.871 5.96884C-277.372 0.243137 -326.747 2.453 -375.419 12.4885C-406.418 18.8848 -437.133 27.1295 -467.46 36.2333C-492.419 43.716 -517.587 51.6659 -540.965 62.8903C-577.288 80.3622 -608.814 105.697 -640.07 130.922C-675.62 159.655 -709.96 189.954 -746.022 218.007C-817.158 273.294 -882.113 334.467 -935.553 407.351C-974.757 460.828 -1007.25 517.51 -1023.47 582.493C-1032.64 619.198 -1040.78 656.17 -1040.35 694.075C-1039.81 742.94 -1030.53 790.708 -1016.69 837.49C-1000.59 891.924 -975.867 942.697 -948.469 992.157C-929.801 1025.84 -910.364 1059.06 -884.503 1088.18C-863.215 1112.13 -837.482 1130.6 -812.821 1150.48C-794.189 1165.5 -774.011 1177.58 -752.637 1188.37C-701.152 1214.42 -645.634 1223.39 -589.259 1229.23C-576.474 1230.55 -563.514 1230.15 -550.647 1230.54Z" stroke="#CB333B" stroke-width="4" stroke-miterlimit="10"/>
<path d="M-686.807 1173.08C-671.253 1176.23 -655.7 1179.38 -640.147 1182.54C-633.584 1183.01 -627.005 1183.27 -620.492 1183.99C-569.294 1189.74 -518.063 1195.18 -466.959 1201.53C-438.067 1205.14 -409.274 1209.24 -380.104 1206.85C-291.802 1199.57 -204.491 1186.36 -119.025 1162.33C-87.3071 1153.41 -58.322 1139.15 -31.1053 1121.13C36.9252 1076.13 89.1628 1016.25 131.85 947.462C167.646 889.787 193.143 827.75 209.836 762.109C230.755 679.841 243.629 596.681 236.233 511.316C231.685 458.654 220.645 407.546 200.86 358.447C177.416 300.305 147.531 245.861 107.748 197C71.6307 152.664 28.9341 116.915 -23.836 94.0784C-69.5686 74.2885 -117.475 62.1317 -166.969 57.6699C-198.495 54.8325 -230.282 53.8468 -261.945 53.7959C-288.002 53.7443 -314.394 54.0798 -340.017 58.0677C-379.84 64.2943 -417.344 79.4344 -454.557 94.5481C-496.895 111.778 -538.527 130.858 -581.159 147.289C-665.239 179.653 -745.104 219.439 -817.331 273.765C-870.318 313.627 -917.805 358.498 -952.118 416.018C-971.51 448.504 -989.99 481.545 -1000.53 517.958C-1014.14 564.892 -1019.06 613.304 -1019.33 662.09C-1019.66 718.853 -1010.67 774.605 -998.738 829.873C-990.603 867.513 -981.597 904.932 -965.258 940.284C-951.802 969.365 -932.506 994.485 -914.646 1020.65C-901.151 1040.41 -885.326 1057.81 -867.983 1074.32C-826.226 1114.14 -775.67 1138.77 -723.39 1160.66C-711.533 1165.62 -699.01 1168.98 -686.807 1173.08Z" stroke="#CB333B" stroke-width="4" stroke-miterlimit="10"/>
</svg>
