<svg width="113" height="110" viewBox="0 0 113 110" fill="none" xmlns="http://www.w3.org/2000/svg">
<path d="M40.0881 0C41.5371 0 42.9861 0 44.435 0C45.0309 0.0766656 45.6243 0.173775 46.2202 0.227441C50.9058 0.643991 55.5889 1.08865 60.2771 1.44898C62.9281 1.65087 65.579 1.80675 68.1459 2.55296C75.9154 4.81715 83.4889 7.595 90.7007 11.3133C93.3771 12.6933 95.7123 14.5026 97.8208 16.6185C103.092 21.9034 106.68 28.2385 109.252 35.1997C111.409 41.0365 112.565 47.0778 112.868 53.2826C113.248 61.059 112.891 68.769 110.681 76.3078C109.318 80.9589 107.403 85.3518 104.742 89.4048C101.59 94.2041 97.9278 98.5536 93.4815 102.221C89.4452 105.548 84.976 107.983 79.8397 109.075C75.3883 110.02 70.8809 110.24 66.371 109.739C63.4985 109.42 60.6362 108.929 57.8019 108.357C55.4692 107.886 53.1137 107.375 50.8931 106.55C47.4425 105.264 44.3612 103.22 41.3053 101.183C37.8293 98.8628 34.45 96.3891 30.9333 94.1351C23.9965 89.6936 17.5715 84.6618 12.0939 78.4621C8.07548 73.9133 4.64019 69.0144 2.61314 63.2184C1.46719 59.9448 0.412925 56.638 0.130259 53.1727C-0.236443 48.7056 0.201562 44.2641 1.06229 39.8738C2.06309 34.7653 3.87877 29.9175 5.94911 25.1668C7.3599 21.9315 8.84454 18.732 10.948 15.8519C12.6796 13.4829 14.862 11.5765 16.9349 9.54998C18.501 8.01922 20.2327 6.74402 22.084 5.57614C26.543 2.75741 31.5139 1.46431 36.5891 0.449771C37.7402 0.219775 38.9218 0.145665 40.0881 0ZM86.6338 71.598C86.7001 68.5288 86.2391 65.5491 85.6127 62.577C84.6399 57.9515 83.4328 53.3925 81.4363 49.0941C78.1437 42.0076 74.6396 35.0336 70.5753 28.3484C68.7367 25.3252 66.949 22.2816 64.5145 19.6877C62.5537 17.5973 60.4019 15.719 57.5192 15.1363C53.5975 14.3441 49.8261 15.0137 46.3144 16.915C42.0235 19.2379 39.1561 22.9792 36.6808 27.0425C35.4763 29.0205 34.4042 31.093 33.4161 33.1885C32.7948 34.5072 32.2549 35.9153 31.9875 37.3438C31.0962 42.1124 31.6565 46.8554 32.6216 51.5474C33.5588 56.0962 35.3974 60.3486 37.213 64.5933C40.3377 71.9021 44.1167 78.8301 49.4161 84.8202C52.9991 88.8707 57.0455 92.3156 62.1997 94.1913C66.4397 95.7349 70.5269 95.3848 74.4079 92.9621C77.0665 91.3036 79.2896 89.1595 81.2835 86.7829C83.3335 84.3398 85.0754 81.654 85.7629 78.5004C86.2544 76.2439 86.3563 73.9031 86.6338 71.598Z" fill="white"/>
</svg>
