<svg width="36" height="35" viewBox="0 0 36 35" fill="none" xmlns="http://www.w3.org/2000/svg">
<path d="M12.7714 0C13.233 0 13.6947 0 14.1563 0C14.3461 0.0243936 14.5352 0.0552921 14.725 0.0723677C16.2178 0.204906 17.7097 0.346389 19.2033 0.461039C20.0479 0.525275 20.8924 0.574876 21.7102 0.812307C24.1854 1.53273 26.5982 2.41659 28.8958 3.59968C29.7485 4.03877 30.4924 4.61445 31.1642 5.28772C32.8435 6.96925 33.9866 8.98497 34.806 11.1999C35.4932 13.0571 35.8615 14.9793 35.9581 16.9535C36.0789 19.4279 35.9654 21.8811 35.2612 24.2798C34.8271 25.7596 34.217 27.1574 33.3692 28.447C32.3649 29.974 31.1982 31.358 29.7817 32.5248C28.4958 33.5835 27.072 34.3584 25.4356 34.7056C24.0175 35.0064 22.5815 35.0764 21.1447 34.917C20.2296 34.8154 19.3177 34.6592 18.4147 34.4771C17.6716 34.3275 16.9212 34.1649 16.2137 33.9022C15.1144 33.4932 14.1328 32.8427 13.1592 32.1947C12.0518 31.4564 10.9752 30.6693 9.85485 29.9521C7.64489 28.5389 5.59801 26.9378 3.85293 24.9652C2.57272 23.5179 1.47829 21.9591 0.832505 20.115C0.467425 19.0734 0.131551 18.0212 0.0414984 16.9186C-0.0753271 15.4973 0.0642145 14.084 0.33843 12.6871C0.657266 11.0617 1.23572 9.51919 1.89529 8.0076C2.34475 6.97819 2.81773 5.96017 3.48785 5.04378C4.03953 4.29002 4.7348 3.68343 5.39519 3.03863C5.89413 2.55157 6.44581 2.14582 7.03562 1.77423C8.45618 0.877356 10.0398 0.465918 11.6567 0.143109C12.0234 0.0699283 12.3999 0.0463478 12.7714 0ZM27.6002 22.7812C27.6213 21.8046 27.4744 20.8565 27.2748 19.9109C26.9649 18.4391 26.5804 16.9885 25.9443 15.6208C24.8953 13.3661 23.779 11.1471 22.4842 9.01994C21.8984 8.05802 21.3289 7.08959 20.5533 6.26428C19.9286 5.59914 19.2431 5.0015 18.3247 4.81611C17.0753 4.56404 15.8738 4.77708 14.755 5.38204C13.388 6.12117 12.4745 7.31157 11.6859 8.60443C11.3022 9.23379 10.9606 9.89323 10.6459 10.56C10.4479 10.9796 10.2759 11.4276 10.1907 11.8821C9.90677 13.3994 10.0853 14.9086 10.3927 16.4014C10.6913 17.8488 11.277 19.2018 11.8555 20.5524C12.8509 22.8779 14.0549 25.0823 15.7432 26.9883C16.8847 28.2771 18.1738 29.3731 19.8158 29.97C21.1666 30.4611 22.4688 30.3497 23.7052 29.5789C24.5521 29.0511 25.2604 28.3689 25.8956 27.6127C26.5487 26.8354 27.1037 25.9808 27.3227 24.9774C27.4793 24.2594 27.5117 23.5146 27.6002 22.7812Z" fill="#CB333B"/>
</svg>
