<svg width="216" height="566" viewBox="0 0 216 566" fill="none" xmlns="http://www.w3.org/2000/svg">
<path d="M-160.238 2C-152.801 2 -145.364 2 -137.926 2C-134.868 2.39169 -131.822 2.88783 -128.764 3.16202C-104.714 5.29021 -80.6764 7.56202 -56.6131 9.40297C-43.0065 10.4344 -29.3998 11.2309 -16.2245 15.0433C23.6544 26.6113 62.5269 40.8036 99.5433 59.8006C113.281 66.851 125.267 76.095 136.089 86.9056C163.146 113.906 181.562 146.273 194.764 181.839C205.835 211.659 211.769 242.525 213.324 274.226C215.272 313.956 213.442 353.347 202.096 391.864C195.104 415.626 185.274 438.07 171.615 458.777C155.434 483.297 136.638 505.519 113.817 524.255C93.0994 541.255 70.1602 553.697 43.7964 559.272C20.9488 564.103 -2.18647 565.226 -25.3348 562.667C-40.0786 561.035 -54.7702 558.528 -69.3179 555.604C-81.2907 553.201 -93.3812 550.59 -104.779 546.373C-122.49 539.805 -138.305 529.36 -153.99 518.954C-171.832 507.099 -189.177 494.461 -207.228 482.945C-242.832 460.253 -275.81 434.545 -303.925 402.87C-324.551 379.63 -342.183 354.601 -352.587 324.989C-358.469 308.264 -363.881 291.369 -365.331 273.664C-367.214 250.842 -364.965 228.15 -360.548 205.719C-355.411 179.619 -346.091 154.851 -335.465 130.579C-328.224 114.05 -320.603 97.7033 -309.807 82.9887C-300.919 70.8855 -289.717 61.1454 -279.077 50.7917C-271.039 42.9709 -262.151 36.4558 -252.648 30.489C-229.761 16.0878 -204.247 9.48131 -178.197 4.29792C-172.289 3.12285 -166.225 2.74421 -160.238 2Z" stroke="white" stroke-width="4" stroke-miterlimit="10"/>
</svg>
