<svg width="595" height="315" viewBox="0 0 595 315" fill="none" xmlns="http://www.w3.org/2000/svg">
<path d="M601.055 563.319C593.013 567.188 584.971 571.057 576.928 574.926C573.417 576.094 569.866 577.141 566.416 578.436C539.303 588.645 512.128 598.693 485.15 609.22C469.9 615.183 454.773 621.4 438.542 624.131C389.402 632.366 339.984 637.24 290.074 635.952C271.551 635.474 253.781 631.712 236.454 625.651C193.15 610.527 156.397 585.106 123.619 553.512C96.1334 527.022 73.6591 496.731 55.4849 463.258C32.7094 421.306 14.1952 377.755 6.42548 330.201C1.62475 300.866 0.577129 271.482 4.57412 241.983C9.31555 207.049 18.0792 173.24 33.0097 141.107C46.5681 111.946 64.8998 86.5572 90.5075 66.8137C112.7 49.7041 137.133 36.4548 163.495 27.1804C180.288 21.2755 197.478 16.3438 214.731 11.9388C228.927 8.30843 243.36 4.84283 257.878 3.47428C280.446 1.36308 302.982 4.43127 325.357 7.52509C350.817 11.0643 376.148 15.709 401.658 18.7723C451.964 24.7901 500.998 35.4362 547.879 55.0643C582.272 69.4673 614.36 87.3618 641.016 113.972C656.078 128.999 670.719 144.455 681.498 162.846C695.407 186.548 704.781 212.257 711.673 238.812C719.697 269.709 722.505 301.342 723.641 333.118C724.41 354.76 724.675 376.401 720.655 397.93C717.341 415.643 710.295 432.003 704.177 448.734C699.553 461.374 693.331 473.043 686.16 484.439C668.904 511.918 644.752 532.335 619.28 551.492C613.502 555.836 607.141 559.4 601.055 563.319Z" stroke="#CB333B" stroke-width="4" stroke-miterlimit="10"/>
</svg>
