<svg width="356" height="246" viewBox="0 0 356 246" fill="none" xmlns="http://www.w3.org/2000/svg">
<path d="M143.195 1.99976C148.299 1.99976 153.402 1.99976 158.506 1.99976C160.605 2.26878 162.694 2.60955 164.793 2.79787C181.297 4.25958 197.791 5.81993 214.303 7.08436C223.64 7.79279 232.977 8.33981 242.018 10.9583C269.384 18.9036 296.058 28.6513 321.459 41.6991C330.886 46.5416 339.11 52.8906 346.537 60.3157C365.103 78.8606 377.741 101.091 386.8 125.519C394.397 146.001 398.469 167.2 399.536 188.973C400.873 216.261 399.617 243.317 391.832 269.771C387.033 286.092 380.288 301.507 370.915 315.729C359.811 332.571 346.914 347.833 331.253 360.702C317.037 372.377 301.296 380.924 283.205 384.753C267.527 388.071 251.651 388.842 235.767 387.084C225.65 385.963 215.568 384.242 205.585 382.233C197.369 380.583 189.073 378.789 181.252 375.893C169.098 371.382 158.246 364.208 147.483 357.061C135.239 348.918 123.337 340.238 110.951 332.328C86.5186 316.743 63.8892 299.086 44.5963 277.33C30.4428 261.368 18.3433 244.177 11.2038 223.839C7.16764 212.352 3.45437 200.748 2.45879 188.588C1.16722 172.912 2.70993 157.327 5.74153 141.92C9.26645 123.994 15.6615 106.983 22.9535 90.3122C27.9225 78.9593 33.1515 67.7319 40.5601 57.6255C46.6592 49.3125 54.3459 42.6228 61.6468 35.5115C67.1629 30.1399 73.262 25.6651 79.7827 21.5669C95.4878 11.6757 112.996 7.13816 130.871 3.57804C134.926 2.77097 139.087 2.51091 143.195 1.99976Z" stroke="white" stroke-width="4" stroke-miterlimit="10"/>
</svg>
