<svg width="132" height="189" viewBox="0 0 132 189" fill="none" xmlns="http://www.w3.org/2000/svg">
<path d="M-46.0857 -80.0002C-42.5466 -80.0002 -39.0075 -80.0002 -35.4684 -80.0002C-34.0129 -79.8128 -32.5637 -79.5753 -31.1083 -79.444C-19.6637 -78.4254 -8.22533 -77.338 3.22546 -76.4568C9.70036 -75.9631 16.1753 -75.5819 22.4449 -73.7571C41.4218 -68.2201 59.9197 -61.427 77.5344 -52.3341C84.0715 -48.9594 89.7751 -44.5349 94.9252 -39.3604C107.8 -26.4366 116.564 -10.9443 122.846 6.07908C128.114 20.3527 130.938 35.1263 131.678 50.2999C132.605 69.3168 131.734 88.1713 126.336 106.607C123.008 117.981 118.331 128.724 111.831 138.635C104.131 150.372 95.1864 161.008 84.3265 169.976C74.468 178.113 63.5521 184.068 51.0066 186.737C40.1342 189.049 29.1251 189.587 18.1096 188.362C11.0936 187.581 4.10248 186.381 -2.82025 184.981C-8.51765 183.831 -14.271 182.581 -19.6948 180.562C-28.1227 177.419 -35.6488 172.42 -43.1126 167.439C-51.6028 161.764 -59.8565 155.715 -68.4462 150.203C-85.3891 139.341 -101.082 127.036 -114.461 111.875C-124.276 100.751 -132.666 88.7712 -137.617 74.5976C-140.416 66.5921 -142.991 58.5054 -143.682 50.0312C-144.578 39.1072 -143.508 28.2457 -141.405 17.5092C-138.961 5.01668 -134.526 -6.83844 -129.469 -18.4561C-126.024 -26.3678 -122.397 -34.1921 -117.26 -41.2352C-113.03 -47.0284 -107.7 -51.6904 -102.637 -56.6462C-98.8116 -60.3896 -94.5821 -63.5081 -90.0603 -66.364C-79.1693 -73.2571 -67.0281 -76.4193 -54.6318 -78.9003C-51.8205 -79.4628 -48.9344 -79.644 -46.0857 -80.0002ZM67.6012 95.0894C67.7629 87.5838 66.6371 80.297 65.1071 73.029C62.7311 61.7175 59.7829 50.5686 54.9065 40.0571C46.8642 22.7275 38.3056 5.67287 28.3787 -10.6756C23.8879 -18.0686 19.5215 -25.5117 13.5753 -31.8548C8.78604 -36.9668 3.53024 -41.5601 -3.51067 -42.985C-13.0893 -44.9223 -22.3009 -43.285 -30.8781 -38.6354C-41.3586 -32.9547 -48.3622 -23.8056 -54.4079 -13.869C-57.3499 -9.03198 -59.9685 -3.96372 -62.3818 1.16079C-63.8995 4.38548 -65.2181 7.82892 -65.8712 11.3223C-68.0481 22.9837 -66.6797 34.5826 -64.3224 46.0565C-62.0335 57.1805 -57.5427 67.5795 -53.108 77.9597C-45.4762 95.8331 -36.2459 112.775 -23.3023 127.424C-14.5509 137.329 -4.66756 145.753 7.92148 150.34C18.2776 154.115 28.2605 153.259 37.7396 147.334C44.2332 143.279 49.6631 138.035 54.5333 132.223C59.5403 126.249 63.7947 119.681 65.474 111.969C66.6745 106.451 66.9233 100.726 67.6012 95.0894Z" fill="white"/>
</svg>
