<svg width="727" height="638" viewBox="0 0 727 638" fill="none" xmlns="http://www.w3.org/2000/svg">
<path d="M601.055 562.796C593.013 566.665 584.971 570.533 576.928 574.402C573.417 575.57 569.866 576.618 566.416 577.912C539.303 588.122 512.128 598.169 485.15 608.696C469.9 614.659 454.773 620.876 438.542 623.607C389.402 631.842 339.984 636.716 290.074 635.428C271.551 634.95 253.781 631.189 236.454 625.128C193.15 610.004 156.397 584.582 123.619 552.988C96.1334 526.498 73.6591 496.207 55.4849 462.734C32.7094 420.782 14.1952 377.232 6.42548 329.678C1.62475 300.343 0.577129 270.958 4.57412 241.459C9.31555 206.525 18.0792 172.716 33.0097 140.583C46.5681 111.422 64.8998 86.0336 90.5075 66.2901C112.7 49.1804 137.133 35.9311 163.495 26.6567C180.288 20.7518 197.478 15.8201 214.731 11.4151C228.927 7.78475 243.36 4.31915 257.878 2.9506C280.446 0.839398 302.982 3.90758 325.357 7.00141C350.817 10.5406 376.148 15.1853 401.658 18.2486C451.964 24.2664 500.998 34.9125 547.879 54.5406C582.272 68.9436 614.36 86.8381 641.016 113.449C656.078 128.476 670.719 143.931 681.498 162.323C695.407 186.024 704.781 211.733 711.673 238.289C719.697 269.186 722.505 300.818 723.641 332.594C724.41 354.236 724.675 375.878 720.655 397.407C717.341 415.119 710.295 431.479 704.177 448.211C699.553 460.85 693.331 472.519 686.16 483.915C668.904 511.395 644.752 531.811 619.28 550.968C613.502 555.312 607.141 558.877 601.055 562.796Z" stroke="white" stroke-width="4" stroke-miterlimit="10"/>
</svg>
